<svg width="24" height="24" viewBox="0 0 24 24" fill="none" xmlns="http://www.w3.org/2000/svg">
<mask id="mask0_45_140" style="mask-type:alpha" maskUnits="userSpaceOnUse" x="0" y="0" width="24" height="24">
<rect x="24" width="24" height="24" transform="rotate(90 24 0)" fill="#D9D9D9"/>
</mask>
<g mask="url(#mask0_45_140)">
<path d="M12 13.5999L15.9 9.69993C16.0833 9.51659 16.3166 9.42493 16.6 9.42493C16.8833 9.42493 17.1166 9.51659 17.3 9.69993C17.4833 9.88326 17.575 10.1166 17.575 10.3999C17.575 10.6833 17.4833 10.9166 17.3 11.0999L12.7 15.6999C12.6 15.7999 12.4916 15.8708 12.375 15.9124C12.2583 15.9541 12.1333 15.9749 12 15.9749C11.8666 15.9749 11.7416 15.9541 11.625 15.9124C11.5083 15.8708 11.4 15.7999 11.3 15.6999L6.69995 11.0999C6.51662 10.9166 6.42495 10.6833 6.42495 10.3999C6.42495 10.1166 6.51662 9.88326 6.69995 9.69993C6.88328 9.51659 7.11662 9.42493 7.39995 9.42493C7.68328 9.42493 7.91662 9.51659 8.09995 9.69993L12 13.5999Z" fill="#151515"/>
</g>
</svg>
