<svg width="74" height="30" viewBox="0 0 74 30" fill="none" xmlns="http://www.w3.org/2000/svg">
<path d="M30.069 0.138515C30.0749 0.356134 30.0758 0.574165 30.0687 0.791784C30.0652 0.900698 30.1082 0.924006 30.2097 0.931328C30.4841 0.951235 30.7598 0.972172 31.0302 1.01982C31.2524 1.05891 31.451 1.16586 31.6112 1.33357C31.8902 1.62565 31.9332 2.00529 31.9916 2.37566C32.0165 2.53449 32.0035 2.69962 32.0038 2.86195C32.0109 6.27868 32.0204 9.6953 32.0218 13.112C32.0222 13.9001 32.0567 14.689 31.953 15.4758C31.9108 15.7964 31.8606 16.112 31.7807 16.4253C31.6309 17.0129 31.2035 17.291 30.7087 17.3703C30.4499 17.4118 30.1807 17.394 29.9163 17.3916C29.825 17.3907 29.7936 17.4155 29.795 17.5043C29.7983 17.705 29.7992 17.9058 29.7948 18.1064C29.7928 18.2013 29.8284 18.2375 29.9231 18.2297C30.1476 18.2108 30.3722 18.1881 30.5971 18.182C31.1908 18.1662 31.7847 18.149 32.3784 18.149C33.3825 18.1491 34.3865 18.1574 35.3904 18.1717C35.8119 18.1778 36.233 18.2066 36.6541 18.2294C36.7572 18.2349 36.8015 18.2051 36.7967 18.0951C36.7885 17.9031 36.793 17.7107 36.7896 17.5186C36.7868 17.3667 36.6946 17.303 36.5454 17.3372C36.4592 17.357 36.3696 17.3759 36.2826 17.3726C36.1262 17.3665 35.9693 17.3508 35.8148 17.3256C35.6183 17.2936 35.4177 17.2673 35.2303 17.2043C34.9713 17.1174 34.7751 16.9478 34.6383 16.6988C34.4941 16.4364 34.4673 16.1471 34.4234 15.8668C34.3658 15.4982 34.3438 15.1211 34.341 14.7474C34.3316 13.4149 34.3367 12.0822 34.3367 10.7498C34.3367 10.7041 34.341 10.6584 34.3435 10.6078C34.3794 10.6061 34.4041 10.602 34.4285 10.6042C34.6952 10.6284 34.9617 10.6555 35.2286 10.6777C35.3732 10.6896 35.5185 10.6952 35.6636 10.7007C36.8314 10.7444 37.9954 10.7645 39.1432 10.4697C39.6004 10.3521 40.0463 10.2144 40.4771 10.0234C41.0299 9.77832 41.5303 9.45241 41.9733 9.04285C42.3248 8.71766 42.6169 8.34596 42.8633 7.93021C43.0952 7.53922 43.2591 7.12358 43.3764 6.6935C43.4743 6.3352 43.5302 5.96009 43.5564 5.589C43.5953 5.03763 43.5735 4.48718 43.449 3.94046C43.3808 3.64074 43.2891 3.35454 43.1748 3.07153C43.0196 2.68744 42.7972 2.34142 42.5328 2.03046C42.0206 1.42835 41.4008 0.96454 40.6751 0.634605C40.2442 0.438747 39.7992 0.284866 39.3423 0.193382C38.8274 0.0903492 38.2989 0.0376453 37.7737 0.00928307C37.3504 -0.0137177 36.9231 0.0316639 36.4974 0.0475464C35.8455 0.071991 35.1935 0.113453 34.5415 0.117887C33.7312 0.123354 32.9206 0.10582 32.1105 0.0845737C31.4758 0.0678654 30.8416 0.0321789 30.2075 0.000413895C30.2009 0.000102997 30.1946 0 30.1886 0C30.0947 0 30.0663 0.040123 30.069 0.138515ZM34.3351 9.26512C34.3391 8.51789 34.3373 7.77066 34.3373 7.02333H34.3429C34.3429 6.29322 34.3347 5.56291 34.3448 4.8329C34.3596 3.77534 34.3887 2.71808 34.4082 1.66051C34.41 1.56098 34.4487 1.52767 34.5434 1.51962C34.9375 1.48621 35.3304 1.43918 35.725 1.41216C36.0856 1.38751 36.4494 1.35223 36.8083 1.37585C37.2348 1.4039 37.6636 1.46362 38.0804 1.5582C38.5046 1.65442 38.9094 1.83203 39.2764 2.06697C39.6909 2.33224 40.0533 2.6628 40.3384 3.07081C40.5882 3.42818 40.7719 3.81556 40.865 4.2409C40.9156 4.47192 40.9407 4.70872 40.9724 4.94357C40.9923 5.09054 41.0233 5.23967 41.0146 5.38582C40.9934 5.74649 40.9833 6.11222 40.9118 6.46443C40.7978 7.02622 40.5874 7.54943 40.2256 8.01427C39.8756 8.46405 39.4357 8.78687 38.9377 9.03068C38.6557 9.16879 38.342 9.24696 38.0372 9.33329C37.6399 9.44592 37.233 9.50728 36.8181 9.51584C36.461 9.52316 36.1034 9.56277 35.7473 9.5505C35.4178 9.53925 35.0901 9.47778 34.7614 9.43931C34.664 9.42787 34.5662 9.41064 34.4686 9.41116C34.4677 9.41116 34.4668 9.41116 34.4659 9.41116C34.3603 9.41116 34.3346 9.3665 34.3351 9.26512ZM45.3789 0.177088C45.3786 0.322306 45.3789 0.467524 45.3789 0.612843C45.3787 0.92576 45.3789 0.929371 45.6865 0.927927C45.9919 0.926586 46.2866 0.973101 46.5686 1.09295C46.8387 1.20763 47.0387 1.39462 47.1406 1.67052C47.2623 1.99983 47.313 2.34214 47.3125 2.69466C47.3095 4.65076 47.3111 6.60696 47.3111 8.56306H47.3243C47.3243 9.46417 47.3333 10.3654 47.3224 11.2663C47.3052 12.6819 47.415 14.1001 47.2512 15.5126C47.2138 15.8357 47.1551 16.1589 47.0725 16.4733C46.9306 17.0131 46.5395 17.2942 46.0081 17.3748C45.7571 17.4127 45.4969 17.3976 45.2412 17.3938C45.1429 17.3923 45.0998 17.4085 45.103 17.5152C45.1088 17.7115 45.1076 17.9082 45.1035 18.1045C45.1015 18.1983 45.1354 18.237 45.2311 18.2286C45.4427 18.2101 45.6544 18.1884 45.8667 18.1817C46.7579 18.1538 47.6492 18.129 48.5407 18.1082C48.667 18.1052 48.7937 18.1383 48.9207 18.1409C49.5357 18.1531 50.151 18.1557 50.7661 18.1713C51.1619 18.1813 51.5573 18.2053 51.9526 18.2281C52.061 18.2344 52.1089 18.2057 52.1031 18.0879C52.0936 17.8961 52.0993 17.7036 52.0954 17.5114C52.0924 17.3543 52.0177 17.3035 51.8614 17.3367C51.7669 17.3567 51.6683 17.3798 51.5736 17.3732C51.3194 17.3555 51.0628 17.3404 50.8143 17.2898C50.6392 17.2542 50.4663 17.179 50.3091 17.0918C49.9948 16.9173 49.8647 16.6062 49.8042 16.2774C49.7313 15.8814 49.6593 15.4786 49.6541 15.0779C49.635 13.6217 49.6447 12.1651 49.6413 10.7087C49.6411 10.6168 49.6717 10.5904 49.7625 10.6007C50.02 10.6298 50.2779 10.6598 50.5366 10.6744C51.5809 10.733 52.6258 10.7841 53.6657 10.6163C53.9248 10.5745 54.1801 10.5098 54.439 10.4671C54.8523 10.3988 55.2454 10.2628 55.6232 10.0921C55.9729 9.93406 56.3262 9.7676 56.6406 9.5507C57.2062 9.16054 57.6982 8.69106 58.0721 8.09925C58.3497 7.6601 58.5508 7.19247 58.682 6.69865C58.7796 6.33138 58.8389 5.94802 58.8618 5.56858C58.8846 5.18872 58.8409 4.80475 58.8266 4.42273C58.8118 4.03204 58.7024 3.6657 58.5736 3.29802C58.4301 2.88815 58.2113 2.52604 57.9617 2.17908C57.7259 1.85152 57.4326 1.57635 57.1171 1.32758C56.7686 1.05272 56.4034 0.801376 55.9836 0.642855C55.6477 0.5161 55.3176 0.369955 54.9738 0.270119C54.6656 0.180595 54.3445 0.126654 54.0251 0.0859146C53.671 0.040741 53.3128 0.0122757 52.9558 0.00608826C52.6075 3.8147e-06 52.2586 0.0325909 51.9098 0.0456905C51.1809 0.0728149 50.4522 0.114794 49.723 0.120157C48.9128 0.126139 48.1022 0.104376 47.292 0.082613C46.7128 0.0670395 46.1342 0.0314579 45.5552 0.00453949C45.5248 0.00309563 45.4995 0.00196266 45.4787 0.00196266C45.3799 0.00196266 45.3792 0.0281582 45.3789 0.177088ZM51.0983 9.55328C50.7928 9.55039 50.4874 9.50811 50.1827 9.47675C50.0438 9.46252 49.9073 9.4224 49.7684 9.41312C49.6658 9.40631 49.6412 9.36712 49.6418 9.27202C49.6454 8.69982 49.644 8.12762 49.6442 7.55541C49.6442 7.35038 49.6442 7.14544 49.6442 6.94051C49.6463 6.94051 49.6483 6.94051 49.6504 6.94051C49.6504 6.18039 49.6421 5.42016 49.6524 4.66025C49.666 3.66261 49.6953 2.66517 49.7141 1.66752C49.7161 1.56366 49.7534 1.52705 49.855 1.51859C50.2451 1.4861 50.6341 1.4399 51.0244 1.41123C51.3508 1.3873 51.6806 1.35079 52.0053 1.37337C52.466 1.40555 52.9328 1.44774 53.3795 1.55706C53.9082 1.6866 54.4049 1.91237 54.8458 2.25324C55.2487 2.56492 55.5814 2.92693 55.8347 3.36887C56.0593 3.761 56.1799 4.18077 56.2607 4.62291C56.3464 5.09074 56.3513 5.55909 56.2952 6.02269C56.2328 6.53776 56.1199 7.042 55.8619 7.51148C55.6521 7.8935 55.3971 8.22673 55.0698 8.50603C54.7825 8.75118 54.4606 8.94168 54.1103 9.08968C53.6967 9.26439 53.2704 9.38104 52.8264 9.43849C52.6414 9.46252 52.4569 9.49676 52.2711 9.5078C51.9053 9.52956 51.5388 9.55359 51.1728 9.55359C51.1479 9.55359 51.1231 9.55349 51.0983 9.55328ZM60.557 0.187815C60.5639 0.388313 60.564 0.58943 60.557 0.789927C60.5531 0.899252 60.5966 0.927721 60.6991 0.927618C60.9965 0.927515 61.2914 0.928131 61.5859 1.006C62.0945 1.14049 62.4052 1.46187 62.5154 1.96064C62.5789 2.24849 62.606 2.54986 62.6074 2.84524C62.6124 3.93839 62.5981 5.03154 62.5946 6.12469C62.5918 7.03436 62.5941 7.94403 62.5941 8.8537C62.5992 8.8537 62.6043 8.8537 62.6094 8.8537C62.6094 10.0963 62.6153 11.339 62.6075 12.5815C62.6012 13.5489 62.6706 14.5188 62.5362 15.4826C62.4935 15.7885 62.4409 16.0938 62.3778 16.3961C62.2529 16.9943 61.8401 17.2884 61.2978 17.3738C61.1033 17.4044 60.9034 17.4016 60.7039 17.3989C60.6377 17.3981 60.5713 17.3972 60.5053 17.3974C60.4179 17.3979 60.381 17.424 60.3825 17.5138C60.3861 17.7101 60.3869 17.9068 60.3822 18.103C60.3798 18.1977 60.4145 18.2354 60.5093 18.227C60.7081 18.2094 60.907 18.1874 61.1062 18.1814C62.0445 18.153 62.9827 18.1275 63.921 18.1062C64.0603 18.1031 64.1997 18.1368 64.3394 18.1395C64.9501 18.1519 65.5611 18.1546 66.1718 18.1701C66.5803 18.1805 66.9886 18.2046 67.3967 18.2268C67.503 18.2326 67.5408 18.1944 67.5378 18.088C67.5318 17.8789 67.5317 17.6693 67.5379 17.4603C67.5412 17.3518 67.4967 17.325 67.3947 17.3201C66.9999 17.3009 66.6033 17.2901 66.2113 17.2432C65.5252 17.1613 65.228 16.822 65.1097 16.213C65.0312 15.8099 64.9885 15.3936 64.9852 14.9828C64.9713 13.2276 64.9785 11.4724 64.9755 9.71716C64.9753 9.6231 65.0033 9.58928 65.0995 9.59155C65.6363 9.60361 66.1736 9.59784 66.7106 9.59196C67.6803 9.58154 68.6498 9.57092 69.6176 9.6657C69.8754 9.69097 70.1342 9.71985 70.3874 9.77214C70.5726 9.8103 70.7646 9.86269 70.9264 9.95582C71.2864 10.1627 71.4815 10.4957 71.5329 10.9052C71.5567 11.0951 71.5596 11.2884 71.5597 11.48C71.5597 11.5927 71.6063 11.6216 71.7076 11.6096C71.8974 11.5873 72.0872 11.5649 72.2777 11.5516C72.3796 11.5444 72.4165 11.5073 72.4122 11.402C72.3962 11.0138 72.3919 10.6253 72.3771 10.2371C72.339 9.24253 72.3689 8.25045 72.477 7.26095C72.4912 7.13059 72.5104 7.00064 72.5298 6.87089C72.5433 6.78003 72.5039 6.72784 72.4158 6.72248C72.2113 6.70979 72.0064 6.69958 71.8015 6.69762C71.7716 6.69731 71.723 6.74197 71.7139 6.77456C71.6569 6.97784 71.6183 7.1867 71.5557 7.38802C71.469 7.66587 71.271 7.85038 71.0172 7.98302C70.6312 8.18475 70.2038 8.21611 69.7859 8.27108C69.4867 8.31048 69.1804 8.30398 68.8774 8.30316C67.6299 8.29986 66.3823 8.28934 65.1348 8.28655C65.0113 8.28645 64.9721 8.25076 64.9774 8.12659C65.0042 7.50075 65.0285 6.87481 65.0441 6.24866C65.0598 5.61262 65.065 4.97636 65.073 4.34011C65.0839 3.46056 65.095 2.5809 65.1005 1.70135C65.1012 1.58419 65.1276 1.53736 65.2557 1.53613C66.1358 1.52715 67.0157 1.50199 67.8956 1.49838C68.6841 1.49508 69.4748 1.4695 70.2582 1.59337C70.5932 1.64638 70.9286 1.70073 71.2597 1.77314C71.64 1.85647 71.973 2.03294 72.2269 2.33895C72.5058 2.67517 72.6373 3.07493 72.7165 3.49418C72.7558 3.70231 72.7743 3.91457 72.7975 4.12538C72.8059 4.20119 72.8338 4.22914 72.9127 4.218C73.123 4.1884 73.3342 4.16447 73.545 4.13982C73.734 4.11775 73.7335 4.11878 73.6818 3.92829C73.674 3.89982 73.6729 3.8694 73.6701 3.8398C73.6451 3.56896 73.6176 3.29822 73.5962 3.02718C73.5672 2.65815 73.5321 2.28923 73.5188 1.91949C73.4984 1.35636 73.4938 0.79261 73.4836 0.229069C73.4804 0.0550766 73.4806 0.0494041 73.3005 0.0561085C72.7254 0.0775604 72.1507 0.105511 71.5755 0.125004C71.1871 0.138102 70.7983 0.145941 70.4095 0.147799C67.8644 0.159555 65.3193 0.197508 62.7748 0.0884933C62.0837 0.0589962 61.3909 0.0658054 60.6989 0.0518818C60.6955 0.0517788 60.6922 0.0517769 60.689 0.0517769C60.5929 0.0517769 60.5533 0.0819969 60.557 0.187815ZM57.441 20.8614C56.9589 20.9974 56.5137 21.1993 56.0951 21.4716C55.7115 21.7211 55.3716 22.0217 55.0871 22.3738C54.8141 22.7119 54.5934 23.0863 54.4205 23.4924C54.1922 24.0281 54.0879 24.585 54.0501 25.1584C54.0202 25.6161 54.0763 26.0687 54.1972 26.5091C54.2822 26.8187 54.3724 27.1327 54.5115 27.42C54.6651 27.7375 54.8634 28.0364 55.0671 28.3259C55.2873 28.6389 55.5642 28.9043 55.8727 29.1324C56.1695 29.3518 56.4841 29.5362 56.8283 29.6797C57.1656 29.8202 57.5144 29.9014 57.8694 29.9588C58.0914 29.9947 58.3203 29.9889 58.515 30C58.7304 29.9905 58.9154 29.9953 59.0967 29.9714C59.5102 29.917 59.9093 29.8092 60.2976 29.6498C60.6782 29.4939 61.0275 29.2914 61.3486 29.0385C61.782 28.6973 62.1497 28.2934 62.4219 27.8142C62.5866 27.5245 62.7406 27.2216 62.8448 26.9067C62.9611 26.5548 63.0465 26.1861 63.0895 25.8181C63.1469 25.3269 63.1266 24.8277 63.013 24.3441C62.933 24.0036 62.8212 23.6672 62.6871 23.3439C62.576 23.0763 62.4264 22.8211 62.2669 22.578C62.0671 22.2734 61.8195 22.0072 61.5452 21.763C61.2743 21.5218 60.984 21.3127 60.6633 21.1489C60.2285 20.9267 59.7569 20.8023 59.2776 20.7449C59.0585 20.7186 58.8395 20.7042 58.6206 20.7042C58.2255 20.7042 57.8314 20.7514 57.441 20.8614ZM58.2578 29.2614C57.7581 29.1822 57.3055 28.9862 56.9074 28.655C56.4329 28.2603 56.0879 27.7731 55.8457 27.2191C55.7062 26.9 55.62 26.5515 55.5543 26.208C55.4843 25.842 55.4671 25.4661 55.4268 25.0945L55.4479 25.0906C55.4611 24.8307 55.4534 24.5676 55.4925 24.3116C55.5491 23.9403 55.6246 23.5738 55.7791 23.2223C55.9458 22.8434 56.1665 22.5049 56.4478 22.2114C56.6791 21.9703 56.9571 21.7777 57.271 21.6488C57.5721 21.525 57.8887 21.4806 58.2115 21.4404C58.5067 21.4036 58.7919 21.4411 59.0707 21.4913C59.6214 21.5906 60.0902 21.8668 60.4948 22.2555C60.7916 22.5405 61.0287 22.8726 61.2142 23.2321C61.3564 23.5079 61.4383 23.8163 61.5338 24.1145C61.6474 24.4688 61.6565 24.8405 61.7075 25.2056C61.7663 25.626 61.6946 26.0309 61.6519 26.4369C61.6027 26.905 61.4623 27.3624 61.2264 27.7744C60.9702 28.2221 60.6485 28.614 60.1945 28.8905C59.9281 29.0525 59.6496 29.1525 59.3502 29.2256C59.1429 29.2763 58.935 29.2994 58.7278 29.2994C58.5706 29.2994 58.4137 29.2861 58.2578 29.2614ZM29.3271 21.2621C29.3258 21.3431 29.3587 21.3757 29.441 21.3774C29.5643 21.3802 29.6914 21.3779 29.8099 21.4063C29.9481 21.4394 30.104 21.4887 30.1518 21.6384C30.2194 21.8503 30.292 22.0716 30.2972 22.2904C30.3149 23.033 30.3039 23.7762 30.3039 24.5192C30.3038 24.5192 30.3036 24.5192 30.3034 24.5192C30.3034 25.1384 30.2956 25.7578 30.3068 26.3767C30.3125 26.6901 30.3585 27.0025 30.376 27.3161C30.396 27.6747 30.5082 28.0034 30.6594 28.3257C30.8007 28.6269 31.0085 28.8763 31.2475 29.0967C31.525 29.3526 31.8427 29.5522 32.194 29.7C32.5019 29.8296 32.8214 29.9257 33.1485 29.9566C33.5511 29.9945 33.9594 29.9969 34.3639 29.9809C34.625 29.9706 34.8915 29.9255 35.1415 29.8501C35.4926 29.7441 35.8289 29.5965 36.1379 29.3861C36.4739 29.1572 36.748 28.8779 36.951 28.5285C37.1779 28.1379 37.2873 27.7049 37.3518 27.2654C37.4047 26.9044 37.4203 26.5363 37.4285 26.1708C37.4412 25.6074 37.4273 25.0434 37.4358 24.4799C37.4482 23.6562 37.4634 22.8324 37.4926 22.0092C37.5019 21.7487 37.6076 21.5148 37.8833 21.427C38.0102 21.3867 38.1513 21.3821 38.2864 21.3788C38.4086 21.3757 38.4576 21.323 38.4545 21.2076C38.4537 21.1778 38.4547 21.1477 38.4546 21.1178C38.454 20.9396 38.4508 20.9374 38.2765 20.9377C37.4608 20.9385 36.6452 20.9403 35.8296 20.9387C35.4979 20.9381 35.4995 20.9344 35.5286 21.2698C35.5351 21.3445 35.5654 21.3765 35.64 21.3761C35.7382 21.3756 35.8372 21.3733 35.9346 21.3845C36.2976 21.4267 36.4654 21.6383 36.503 21.938C36.557 22.3678 36.5641 22.8034 36.5888 23.2367C36.5956 23.356 36.5947 23.4758 36.595 23.5953C36.5981 24.7844 36.6866 25.9756 36.5298 27.1605C36.4959 27.4183 36.4295 27.6836 36.3182 27.9168C35.9893 28.6059 35.4001 28.9703 34.6661 29.0803C34.0718 29.1694 33.4802 29.1346 32.9134 28.8833C32.4567 28.681 32.1199 28.3583 31.8757 27.934C31.6597 27.5583 31.5984 27.1342 31.5486 26.7139C31.5145 26.4269 31.5215 26.1342 31.5202 25.8441C31.5165 24.9985 31.5093 24.153 31.5209 23.3075C31.5268 22.8745 31.5582 22.4407 31.5997 22.0094C31.6368 21.6249 31.8573 21.3628 32.2784 21.3693C32.5721 21.3737 32.5684 21.3621 32.5642 21.0635C32.5626 20.9602 32.5232 20.9314 32.4261 20.9361C32.1787 20.9481 31.931 20.9603 31.6835 20.9592C31 20.9563 30.3166 20.944 29.6331 20.9407C29.533 20.9402 29.4654 20.9339 29.4198 20.9339C29.3032 20.9339 29.3315 20.9754 29.3271 21.2621ZM45.8716 21.268C45.8708 21.3508 45.9067 21.3794 45.9878 21.3799C46.1327 21.3806 46.2788 21.3807 46.4222 21.3988C46.7437 21.4391 46.9516 21.6621 46.9692 21.9867C46.9979 22.5141 47.0269 23.0418 47.0411 23.5696C47.0583 24.2098 47.0625 24.8504 47.0684 25.4908C47.075 26.1869 47.0765 26.883 47.0825 27.5791C47.0832 27.6638 47.0977 27.7485 47.1059 27.8333C46.9609 27.7133 46.8401 27.5811 46.7255 27.4437C46.5115 27.1869 46.3048 26.9239 46.0882 26.6693C45.834 26.3704 45.5698 26.0801 45.3151 25.7816C45.1121 25.5434 44.9204 25.2958 44.7175 25.0578C44.3836 24.6656 44.0421 24.2799 43.7088 23.8874C43.5092 23.6522 43.3224 23.4065 43.124 23.1705C42.6976 22.6632 42.2629 22.163 41.8416 21.6518C41.7026 21.4831 41.5727 21.2996 41.4796 21.1033C41.4189 20.9757 41.3613 20.9346 41.2261 20.9365C40.6669 20.9452 40.1076 20.9437 39.5484 20.9439C39.4961 20.944 39.4524 20.9425 39.4157 20.941C39.1905 20.9315 39.2333 20.922 39.2289 21.2769C39.2279 21.3553 39.2661 21.3784 39.3395 21.3801C39.4801 21.3834 39.6254 21.3749 39.7599 21.4071C39.9471 21.4521 40.1492 21.5065 40.2145 21.7251C40.2648 21.8936 40.3259 22.0691 40.325 22.2411C40.3202 23.273 40.3072 24.3052 40.2804 25.3367C40.256 26.2693 40.3369 27.2044 40.2073 28.1353C40.1676 28.4194 40.1302 28.7013 39.9967 28.9561C39.8919 29.1563 39.7599 29.3467 39.503 29.3679C39.226 29.3908 39.2256 29.3859 39.2305 29.6667C39.2307 29.6796 39.2317 29.6923 39.231 29.7051C39.2258 29.7838 39.2658 29.8115 39.3403 29.807C39.4724 29.7992 39.6047 29.7882 39.7369 29.7888C40.4376 29.7922 41.1381 29.8003 41.8386 29.8037C42.2028 29.8055 42.1475 29.8688 42.1548 29.4882C42.1564 29.4009 42.1256 29.3677 42.0361 29.3673C41.8912 29.3665 41.7439 29.3665 41.6021 29.3417C41.428 29.311 41.2562 29.2435 41.1885 29.0637C41.1267 28.8996 41.0679 28.724 41.0614 28.5514C41.026 27.6012 40.9983 26.6505 40.9847 25.6998C40.9706 24.722 40.9757 23.7439 40.9728 22.766C40.9726 22.7213 40.9768 22.6764 40.9807 22.5928C41.1054 22.7393 41.205 22.8566 41.305 22.9735C41.6291 23.3518 41.9531 23.7302 42.2775 24.1082C42.5583 24.4351 42.8413 24.7603 43.1203 25.0889C43.467 25.4976 43.8091 25.91 44.156 26.3184C44.4325 26.6442 44.7142 26.9656 44.9911 27.2913C45.2096 27.5483 45.423 27.8098 45.6403 28.0679C45.9207 28.4012 46.2066 28.73 46.4832 29.0664C46.6815 29.3078 46.8659 29.5606 47.0625 29.8035C47.0996 29.8495 47.1621 29.8961 47.2174 29.9023C47.3483 29.9169 47.4818 29.9075 47.6142 29.9075C47.8327 29.9074 47.8323 29.9074 47.7803 29.6908C47.7743 29.6661 47.773 29.6401 47.7722 29.6146C47.7629 29.3372 47.7458 29.0599 47.7467 28.7826C47.75 27.7065 47.7543 26.6304 47.7673 25.5545C47.7772 24.7276 47.796 23.9009 47.8212 23.0744C47.8285 22.8377 47.8559 22.599 47.9038 22.3671C47.9496 22.1451 48.0124 21.9207 48.1079 21.7161C48.1939 21.5319 48.336 21.3798 48.5741 21.3746C48.8475 21.3689 48.8428 21.3648 48.8468 21.083C48.8484 20.9708 48.8127 20.9319 48.6997 20.9368C48.3924 20.9503 48.0848 20.9623 47.7773 20.9613C47.2435 20.9597 46.7095 20.9442 46.1756 20.9416C46.0774 20.9411 46.0108 20.9345 45.9656 20.9345C45.8515 20.9345 45.8745 20.9768 45.8716 21.268ZM52.8389 20.9364C52.3308 20.9431 51.8227 20.9392 51.3145 20.9392C51.3146 20.94 51.3146 20.9409 51.3146 20.9417C50.8491 20.9417 50.3837 20.9404 49.9183 20.9421C49.8674 20.9422 49.8249 20.9409 49.7892 20.9394C49.575 20.9308 49.6136 20.9223 49.6091 21.2618C49.6081 21.344 49.6445 21.3764 49.7253 21.3754C49.832 21.3739 49.9393 21.3729 50.0454 21.3826C50.3655 21.4122 50.5251 21.5327 50.603 21.7847C50.6538 21.9492 50.6755 22.1265 50.6844 22.2994C50.7021 22.636 50.7083 22.9735 50.7075 23.3106C50.7037 24.9926 50.6985 26.6747 50.6866 28.3566C50.6853 28.5414 50.6454 28.7273 50.6092 28.9099C50.5934 28.9899 50.5522 29.0706 50.5034 29.1368C50.3701 29.3186 50.1665 29.3519 49.9598 29.3664C49.8725 29.3726 49.7849 29.3725 49.6973 29.3724C49.6781 29.3724 49.6587 29.3724 49.6396 29.3724C49.5723 29.3726 49.5363 29.3985 49.5373 29.4708C49.5427 29.8605 49.4838 29.8029 49.8497 29.8023C50.819 29.8006 51.7882 29.7997 52.7575 29.8024C53.1364 29.8034 53.0683 29.8502 53.0782 29.4914C53.0806 29.4019 53.0439 29.3729 52.9576 29.3712C52.7913 29.3677 52.6222 29.3714 52.46 29.3413C52.2838 29.3086 52.1046 29.2412 52.0517 29.0426C51.9963 28.8354 51.9318 28.6218 51.9303 28.4107C51.9189 26.6987 51.9172 24.9866 51.9221 23.2746C51.9234 22.8285 51.9543 22.3822 51.9786 21.9363C51.9908 21.7125 52.0896 21.5316 52.3124 21.4577C52.4466 21.4132 52.5912 21.3877 52.7327 21.3793C53.0254 21.3617 52.9985 21.4162 53.0085 21.0976C53.0125 20.9665 52.9669 20.9363 52.849 20.9363C52.8457 20.9363 52.8423 20.9363 52.8389 20.9364ZM70.7451 21.2646C70.7444 21.3465 70.7788 21.3762 70.8605 21.3777C71.0224 21.3807 71.1856 21.3821 71.3457 21.4039C71.5796 21.4359 71.7665 21.6228 71.8044 21.855C71.8326 22.0266 71.8584 22.2002 71.8634 22.3735C71.8934 23.3795 71.9212 24.3855 71.9412 25.3917C71.9562 26.1473 71.9587 26.9032 71.9668 27.6589C71.9673 27.7162 71.9668 27.7735 71.9668 27.8563C71.9238 27.8257 71.9051 27.8172 71.893 27.8031C71.7143 27.5952 71.5344 27.3883 71.3588 27.1778C71.1498 26.9274 70.9482 26.6709 70.7371 26.4226C70.5645 26.2199 70.3783 26.0288 70.206 25.826C69.9126 25.4807 69.6277 25.1282 69.3348 24.7824C69.0095 24.3983 68.6773 24.02 68.3517 23.6361C68.1109 23.3523 67.8763 23.0631 67.6376 22.7772C67.3832 22.472 67.1288 22.1666 66.8714 21.8639C66.6626 21.6185 66.4618 21.3683 66.327 21.0721C66.2826 20.9746 66.2177 20.9354 66.0996 20.9374C65.5277 20.9478 64.9554 20.9484 64.3833 20.9451C64.0227 20.943 64.0846 20.8986 64.0752 21.2419C64.0727 21.3401 64.1065 21.3793 64.208 21.379C64.3484 21.3785 64.4943 21.3719 64.6284 21.4055C64.8372 21.4581 65.0563 21.5214 65.1014 21.7854C65.1297 21.9514 65.1751 22.1182 65.1748 22.2846C65.1727 23.4845 65.1653 24.6846 65.1505 25.8844C65.1423 26.5574 65.1216 27.2304 65.0973 27.903C65.0835 28.2876 65.0227 28.6652 64.8324 29.0087C64.7189 29.2137 64.5756 29.3781 64.3109 29.3736C64.0686 29.3696 64.0779 29.3395 64.0783 29.6094C64.0786 29.8095 64.0798 29.8046 64.2764 29.8038C65.0878 29.801 65.8991 29.8015 66.7106 29.8024C67.0732 29.8028 67.0155 29.8496 67.0239 29.4935C67.0263 29.3953 66.9828 29.3703 66.893 29.3695C66.7481 29.3682 66.6023 29.3637 66.4587 29.3458C66.2001 29.3134 65.9704 29.0859 65.9485 28.8331C65.9176 28.473 65.8837 28.1118 65.8786 27.7506C65.8611 26.4995 65.8545 25.2482 65.8456 23.997C65.8424 23.5491 65.8451 23.1012 65.8451 22.6158C65.8943 22.6621 65.9236 22.6847 65.9468 22.7122C66.1214 22.919 66.2939 23.1274 66.4686 23.334C66.7252 23.6373 66.9815 23.9407 67.2406 24.2418C67.7261 24.8057 68.2152 25.3666 68.6991 25.9318C68.9494 26.2243 69.1912 26.524 69.4382 26.8194C69.6933 27.1245 69.9488 27.4295 70.2062 27.7326C70.4962 28.0741 70.7937 28.4095 71.0789 28.755C71.3727 29.1111 71.6546 29.4768 71.9447 29.836C71.9704 29.8678 72.017 29.9 72.0552 29.9015C72.1702 29.9064 72.2854 29.9057 72.4005 29.9052C72.4562 29.905 72.512 29.9047 72.5678 29.905C72.6393 29.9053 72.6623 29.8749 72.6586 29.8021C72.641 29.4569 72.6157 29.1115 72.6165 28.7662C72.6208 27.058 72.6291 25.3499 72.6446 23.6418C72.6476 23.3109 72.6957 22.9808 72.7104 22.6498C72.723 22.3643 72.8089 22.0993 72.9003 21.8338C72.9873 21.5807 73.2196 21.3823 73.4397 21.3735C73.7167 21.3624 73.712 21.3624 73.7157 21.084C73.7171 20.9703 73.6777 20.9326 73.5663 20.9392C73.3532 20.9517 73.1394 20.9615 72.9261 20.9606C72.3025 20.9578 71.6788 20.9464 71.0552 20.9438C70.956 20.9434 70.8885 20.937 70.8424 20.937C70.7247 20.937 70.7479 20.9783 70.7451 21.2646Z" fill="url(#paint0_linear_71_4256)"/>
<path d="M13.0663 0.159603C12.9524 0.218494 12.8461 0.292652 12.7379 0.362888L21.4572 5.17155L21.4582 5.23643L21.6376 15.1988C21.7008 15.1676 21.7636 15.1359 21.8258 15.1029C21.8677 15.0806 21.919 15.0273 21.9209 14.9862C21.9309 14.7691 21.9295 14.5513 21.926 14.3339C21.9233 14.1646 21.9078 13.9955 21.9055 13.8262C21.9028 13.6358 21.9122 13.4451 21.9101 13.2545C21.9069 12.9617 21.8962 12.6688 21.893 12.376C21.891 12.1891 21.8996 12.0022 21.8985 11.8152C21.8965 11.4649 21.8905 11.1145 21.8873 10.7642C21.8869 10.7139 21.8947 10.6637 21.8942 10.6134C21.8922 10.4205 21.8872 10.2274 21.8856 10.0345C21.884 9.86367 21.8886 9.69277 21.8846 9.52198C21.8807 9.35582 21.866 9.18988 21.8626 9.02372C21.8587 8.83333 21.8647 8.64263 21.8616 8.45214C21.8567 8.15892 21.8455 7.8658 21.8418 7.57269C21.8394 7.3857 21.849 7.19861 21.847 7.01152C21.8435 6.66116 21.8335 6.31081 21.8301 5.96035C21.8274 5.68971 21.8274 5.41908 21.8326 5.14845C21.8359 4.97301 21.7815 4.8574 21.6122 4.76447C18.8504 3.24918 16.0928 1.72626 13.3342 0.205088C13.3017 0.187143 13.2705 0.158777 13.2363 0.154137C13.206 0.150011 13.1723 0.145061 13.1404 0.145061C13.1133 0.145061 13.0875 0.148672 13.0663 0.159603ZM12.2448 0.679932C11.9498 0.863825 11.6534 1.04545 11.3571 1.22749C11.1609 1.34816 10.9631 1.46666 10.7672 1.58826C10.7241 1.61497 10.6813 1.6422 10.6385 1.66943L10.9945 1.8658L12.9025 0.709738L12.5242 0.501196C12.4315 0.561426 12.3386 0.621452 12.2448 0.679932ZM11.0762 1.91077L12.2103 2.53629L14.0965 1.36837L12.984 0.754808L11.0762 1.91077ZM12.2915 2.58106L13.4208 3.2039L15.3098 2.03753L14.1776 1.41303L12.2915 2.58106ZM10.2656 1.90417C10.206 1.94016 10.2045 1.97471 10.2523 2.01122C10.3137 2.05784 10.3795 2.09951 10.447 2.13716C10.4642 2.14685 10.4816 2.15644 10.4988 2.16614L10.9148 1.91417L10.5609 1.71894C10.4631 1.78154 10.3652 1.84425 10.2656 1.90417ZM10.58 2.21152C10.9575 2.42264 11.3351 2.63355 11.7127 2.84447L12.1315 2.58518L10.9965 1.95914L10.58 2.21152ZM13.5021 3.24877L14.6055 3.85728L16.5133 2.70121L15.391 2.08218L13.5021 3.24877ZM8.72519 2.61127C6.00928 4.20722 3.28884 5.79574 0.569525 7.38601C0.537449 7.40468 0.497226 7.41685 0.47567 7.44397C0.440397 7.48832 0.396461 7.54113 0.393366 7.5927C0.385528 7.7209 0.394914 7.85013 0.399658 7.97894L8.99552 2.95287L9.05173 2.98515L17.7003 7.93336C17.7058 7.86312 17.7108 7.79289 17.7142 7.72265C17.7165 7.6751 17.697 7.60384 17.6626 7.58114C17.4813 7.4614 17.2936 7.35105 17.1051 7.24255C16.9583 7.15818 16.8051 7.08505 16.6585 7.00038C16.4936 6.90498 16.3345 6.79937 16.1698 6.70355C15.9166 6.55627 15.6596 6.41549 15.4065 6.26831C15.2449 6.17435 15.0888 6.07112 14.9278 5.97633C14.6258 5.79863 14.3218 5.62432 14.0192 5.44765C13.9758 5.42228 13.9366 5.38989 13.8932 5.36452C13.7264 5.26747 13.5582 5.17289 13.3916 5.07553C13.2441 4.98931 13.0995 4.89783 12.9509 4.81388C12.8062 4.73198 12.6562 4.65968 12.5118 4.57748C12.3461 4.48332 12.1853 4.38059 12.0202 4.28571C11.7659 4.13956 11.5083 3.99909 11.2547 3.85222C11.0929 3.75858 10.9371 3.65441 10.7756 3.56024C10.4727 3.38388 10.1666 3.21298 9.86393 3.03651C9.63022 2.90016 9.39754 2.76165 9.16796 2.6186C9.08958 2.56981 9.01728 2.54321 8.94209 2.54321C8.87433 2.54321 8.8042 2.56476 8.72519 2.61127ZM11.7933 2.88954C12.1673 3.09839 12.5411 3.30745 12.9148 3.5163L13.3418 3.25268L12.2127 2.62994L11.7933 2.88954ZM14.687 3.90235L15.8212 4.52777L17.7074 3.35974L16.595 2.74618L14.687 3.90235ZM8.99376 3.2137L9.00954 5.43682L9.97841 3.77374L8.99665 3.21205L8.99376 3.2137ZM7.91907 3.84212L7.93496 6.07277L8.91311 5.50087V5.50035L8.91672 5.49881L8.91837 5.49788L8.91847 5.49798L8.9291 5.49314L8.91321 3.26083L7.91907 3.84212ZM12.9956 3.56138C13.3595 3.76466 13.7233 3.96794 14.087 4.17143L14.5257 3.90555L13.4231 3.29745L12.9956 3.56138ZM15.9024 4.57253L17.0542 5.20775L18.9827 4.06304L17.7886 3.4045L15.9024 4.57253ZM9.12103 5.40547L11.1847 4.46393L10.0484 3.81386L9.12103 5.40547ZM6.85697 4.4631L6.85243 6.70572L7.85451 6.1199L7.83873 3.88915L6.85697 4.4631ZM14.168 4.21681C14.5454 4.42783 14.9225 4.63937 15.2997 4.8508L15.7424 4.57656L14.6074 3.95062L14.168 4.21681ZM17.1362 5.25303L18.1526 5.81368L20.0605 4.65752L19.0648 4.10842L17.1362 5.25303ZM5.5989 5.19878L5.63603 7.41695L6.77157 6.75306L6.77611 4.51044L5.5989 5.19878ZM9.01026 5.5448V5.55037L10.2121 6.23799L12.4561 5.19136L11.2709 4.51323L9.01026 5.5448ZM15.3801 4.89587C15.7573 5.1073 16.1345 5.31862 16.5117 5.52975L16.9737 5.25561L15.8236 4.62132L15.3801 4.89587ZM18.2343 5.85865L19.2266 6.4059L19.2269 6.40559L19.2302 6.40775L19.2318 6.40868V6.40899L19.2414 6.41559L21.1505 5.2586L20.1422 4.70259L18.2343 5.85865ZM10.2979 6.28719L11.3405 6.88373L13.6068 5.84978L12.5419 5.24045L10.2979 6.28719ZM4.42211 5.88691L4.43799 8.11756L5.556 7.46378L5.51887 5.24561L4.42211 5.88691ZM16.5932 5.57533C16.9319 5.7648 17.2707 5.95385 17.6096 6.14269L18.0729 5.86195L17.0557 5.30089L16.5932 5.57533ZM19.3309 6.45581L21.2555 6.43622L21.2352 5.30532L21.2321 5.30367L19.3309 6.45581ZM7.93558 6.166L7.9395 6.70799C8.21869 6.54606 8.49809 6.38424 8.77676 6.22149C8.8339 6.18828 8.88516 6.17064 8.93384 6.16455L8.93301 6.04296L8.91651 5.59245L7.93558 6.166ZM9.01377 6.04244L9.01831 6.1661C9.07792 6.1757 9.13568 6.202 9.19705 6.24119C9.3402 6.33257 9.48387 6.42312 9.63002 6.50965L10.1225 6.27986L9.01099 5.64382L9.01377 6.04244ZM11.4269 6.93314L12.4805 7.53587L14.7212 6.48727L13.6931 5.89918L11.4269 6.93314ZM17.6911 6.18776C17.9732 6.34474 18.2552 6.50171 18.5378 6.65786C18.5955 6.68983 18.6369 6.7249 18.6671 6.76347L18.7711 6.70046L19.1496 6.45571L18.1546 5.90692L17.6911 6.18776ZM3.23521 6.58082L3.26965 8.80064L4.35744 8.16459L4.34166 5.93384L3.23521 6.58082ZM23.1318 6.17745C23.1201 6.25367 23.115 6.33133 23.1142 6.40848C23.114 6.42828 23.1137 6.44818 23.1135 6.46799L23.5337 6.71283L23.536 6.30864C23.4342 6.25274 23.3323 6.19674 23.232 6.13795C23.2106 6.12536 23.1929 6.11917 23.1785 6.11917C23.1526 6.11917 23.1377 6.13918 23.1318 6.17745ZM6.85233 6.79947L6.85119 7.33712C7.18742 7.14333 7.52334 6.94922 7.85905 6.75471L7.85513 6.21303L6.85233 6.79947ZM9.71448 6.55936C9.9551 6.69891 10.1989 6.83278 10.4387 6.97367C10.5407 7.03359 10.6421 7.09496 10.7434 7.15612L11.2501 6.92499L10.2084 6.32896L9.71448 6.55936ZM23.6144 6.75966L25.5418 7.88282L25.5442 7.45099C25.4469 7.39828 25.3499 7.34537 25.2536 7.29092C24.9509 7.11971 24.6498 6.94623 24.3484 6.77317C24.1484 6.65838 23.9499 6.54132 23.7494 6.42735C23.7052 6.40229 23.661 6.37764 23.6165 6.35309L23.6144 6.75966ZM19.2337 6.5146L19.2586 7.89912L21.3069 9.29033L21.2823 7.92521L19.2385 6.51182L19.2337 6.5146ZM19.4149 6.53564L21.2805 7.82579L21.257 6.51698L19.4149 6.53564ZM12.5663 7.58496L13.6042 8.17882L15.8948 7.1587L14.8069 6.53637L12.5663 7.58496ZM23.0981 7.85838L23.5261 8.1023L23.5332 6.80607L23.1125 6.56091C23.1076 6.99347 23.1028 7.42592 23.0981 7.85838ZM18.8128 6.76966L18.709 6.8368C18.7313 6.89301 18.7384 6.95603 18.7361 7.02895C18.7309 7.19861 18.7267 7.36847 18.7272 7.53824L19.1768 7.84363L19.1538 6.56308L18.8128 6.76966ZM2.03913 7.28029L2.07625 9.49846L3.18952 8.84746L3.15517 6.62764L2.03913 7.28029ZM5.63758 7.50967L5.64634 8.03113C6.02104 7.81558 6.39574 7.59971 6.77033 7.38384L6.77147 6.84681L5.63758 7.50967ZM23.6066 8.14819L25.5342 9.2464L25.5413 7.97595L23.6138 6.853L23.6066 8.14819ZM10.8276 7.20655C10.9672 7.29112 11.1066 7.37611 11.2466 7.46027C11.3694 7.53411 11.4925 7.60796 11.6171 7.67871C11.7018 7.72688 11.7876 7.77329 11.8731 7.82011L12.3911 7.57784L11.3364 6.97439L10.8276 7.20655ZM13.691 8.22854L14.7941 8.85963L17.0602 7.82558L15.9816 7.20851L13.691 8.22854ZM0.862331 7.96822L0.878214 10.199L1.99622 9.54519L1.95909 7.32702L0.862331 7.96822ZM8.80151 7.52648C8.60669 7.62261 8.41661 7.72894 8.22787 7.83693C8.081 7.92098 7.94042 8.01638 7.79345 8.10013C7.62781 8.1945 7.4563 8.27825 7.29045 8.3721C7.0355 8.51639 6.78436 8.66718 6.5294 8.81147C6.36686 8.90346 6.19885 8.98628 6.03579 9.07735C5.72999 9.24835 5.42594 9.42276 5.12076 9.59479C5.07703 9.61944 5.02928 9.63698 4.98544 9.66163C4.81743 9.75661 4.65087 9.85408 4.48265 9.94876C4.33382 10.0325 4.182 10.1112 4.03431 10.1971C3.89075 10.2807 3.75254 10.3738 3.60877 10.4569C3.44375 10.5524 3.27399 10.6393 3.10876 10.734C2.85422 10.8798 2.60298 11.0312 2.34802 11.1761C2.18548 11.2684 2.01705 11.3504 1.8542 11.4423C1.54912 11.6146 1.24714 11.7925 0.941953 11.9649C0.706284 12.0978 0.469172 12.2287 0.229791 12.3547C0.0744667 12.4366 -0.000410853 12.54 1.6953e-06 12.7333C0.00691188 15.8834 0.00505567 19.0336 0.00526195 22.1838C0.00526195 22.2208 -0.00463945 22.2619 0.00784014 22.2941C0.0283644 22.347 0.0518796 22.4115 0.0946815 22.4402C0.201531 22.5117 0.317664 22.5688 0.431321 22.6297V12.6724L0.487634 12.64L9.12464 7.6718C9.06678 7.63158 9.00872 7.59177 8.94972 7.5533C8.92085 7.53453 8.87536 7.51937 8.83844 7.51937C8.82441 7.51937 8.81172 7.52153 8.80151 7.52648ZM4.43861 8.21069L4.44222 8.72442C4.81681 8.50845 5.19161 8.29279 5.56631 8.07713L5.55754 7.55649L4.43861 8.21069ZM25.7127 17.5296L25.6563 17.5616L16.9919 22.482C17.0495 22.5225 17.1074 22.5626 17.1661 22.6014C17.2058 22.6275 17.2771 22.6471 17.3141 22.6291C17.5095 22.5341 17.7002 22.4288 17.8895 22.3218C18.0369 22.2386 18.1779 22.144 18.3255 22.061C18.4916 21.9676 18.6636 21.8847 18.8299 21.7918C19.0856 21.6489 19.3377 21.4995 19.5934 21.3568C19.7565 21.2656 19.9249 21.1838 20.0884 21.0934C20.3953 20.9243 20.7002 20.7516 21.0063 20.5812C21.0503 20.5568 21.0981 20.5395 21.142 20.5151C21.3105 20.4211 21.4777 20.3246 21.6464 20.2308C21.7958 20.1478 21.948 20.07 22.096 19.9849C22.2402 19.9021 22.3789 19.8098 22.5231 19.7274C22.6886 19.6329 22.8588 19.5469 23.0247 19.4532C23.28 19.3088 23.532 19.1588 23.7877 19.0153C23.9508 18.9239 24.1197 18.8429 24.2831 18.7518C24.5891 18.5811 24.8921 18.4049 25.1982 18.2343C25.4346 18.1026 25.6724 17.9731 25.9126 17.8483C26.0682 17.7675 26.1437 17.6644 26.1444 17.4712C26.1549 14.3209 26.1742 11.1708 26.1915 8.02071C26.1917 7.98369 26.2018 7.94274 26.1894 7.91046C26.1692 7.85745 26.1462 7.79268 26.1034 7.7637C25.9971 7.69171 25.8811 7.63395 25.7679 7.57248L25.7127 17.5296ZM11.9607 7.86838C11.9975 7.88901 12.0341 7.90974 12.0705 7.93099C12.2323 8.02577 12.3881 8.13045 12.5503 8.224C12.6897 8.30445 12.8304 8.38252 12.9711 8.4607L13.5126 8.21956L12.4768 7.62683L11.9607 7.86838ZM18.7429 8.47039C18.7436 8.58879 18.7429 8.70719 18.7422 8.8257L19.2002 9.14233L19.1786 7.94243L18.7277 7.63622C18.7311 7.91438 18.7411 8.19234 18.7429 8.47039ZM8.79481 8.12035L8.54347 10.5986L9.64188 9.96671L9.82525 8.15851C9.69747 8.07074 9.56947 7.98328 9.4421 7.89489C9.40363 7.86818 9.36526 7.84115 9.327 7.81413L8.79481 8.12035ZM14.8804 8.90903L15.9803 9.53838L17.6338 8.78393C17.645 8.62922 17.6559 8.47462 17.668 8.32002C17.6716 8.2734 17.6755 8.22668 17.6796 8.17996L17.1465 7.87509L14.8804 8.90903ZM23.0827 9.23546L23.5185 9.48444L23.5256 8.19491L23.097 7.95069C23.0924 8.37901 23.0874 8.80724 23.0827 9.23546ZM19.282 9.19895L21.3308 10.6159L21.3086 9.38924L19.2604 7.99792L19.282 9.19895ZM0.409146 8.23328C0.413272 8.34384 0.417294 8.4543 0.419563 8.56487C0.426267 8.91244 0.430599 9.26001 0.43524 9.60758C0.438231 9.83809 0.438747 10.0687 0.442769 10.2991C0.443801 10.3499 0.445142 10.4006 0.446585 10.4512L0.797664 10.2461L0.781781 8.01535L0.409146 8.23328ZM7.63142 8.7896L7.35574 11.2818L8.45724 10.6481L8.70859 8.16985L7.63142 8.7896ZM9.7281 9.9172L11.1465 9.10128C11.02 9.01506 10.8933 8.92874 10.7685 8.83983C10.5598 8.69121 10.3581 8.53279 10.1493 8.38417C10.0671 8.32569 9.98409 8.26866 9.90106 8.21131L9.7281 9.9172ZM23.5989 9.53044L25.5265 10.6319L25.5338 9.33912L23.606 8.24081L23.5989 9.53044ZM3.2711 8.89346L3.27883 9.39574C3.63981 9.1874 4.00079 8.97896 4.36177 8.77073L4.35816 8.25772L3.2711 8.89346ZM13.0592 8.5099C13.1451 8.55785 13.231 8.60602 13.3162 8.65521C13.598 8.81796 13.8777 8.98433 14.1577 9.14996L14.7035 8.90099L13.5996 8.26928L13.0592 8.5099ZM6.45824 9.46443L6.23247 11.928L7.269 11.3317L7.54469 8.83942L6.45824 9.46443ZM16.0666 9.58778L17.4869 10.4003C17.4974 10.2475 17.5079 10.0947 17.5217 9.94216C17.5447 9.6869 17.5795 9.43276 17.6024 9.1775C17.6115 9.07705 17.6189 8.97648 17.6263 8.87593L16.0666 9.58778ZM15.8994 14.6158C15.1654 13.8971 14.3641 13.4064 13.3198 13.3319C11.9459 13.1737 10.7914 12.9411 9.96377 11.8025C9.92117 11.744 9.85908 11.6223 9.82629 11.5611C9.81102 11.5325 9.80091 11.5152 9.76626 11.4462C9.85372 12.4064 10.295 13.2347 11.1209 13.7307C12.5263 14.6938 14.5814 13.9104 15.841 15.1548C15.3438 15.0799 14.9045 15.0137 14.4231 14.9412C14.6569 15.5517 15.1673 15.7034 15.6947 15.8266C15.6952 15.8473 15.6615 15.8386 15.6299 15.8505C14.7525 16.0834 13.9911 15.7079 13.4505 14.9912C13.4444 14.9832 13.4352 14.9754 13.4242 14.968C13.3667 14.9297 13.2948 14.9206 13.2273 14.9355C12.8316 15.0237 11.1231 15.4323 10.4114 16.0649C11.0955 15.9182 11.7645 15.7698 12.4496 15.632C12.4499 15.6324 12.4503 15.6327 12.4505 15.6332L12.4554 15.6308C11.1787 16.4248 10.5866 18.2001 11.2999 19.557C12.0776 19.972 12.3558 20.1207 13.1098 20.5675C12.4374 20.169 12.2146 19.5585 12.136 19.3699C12.0541 19.1736 11.98 18.9644 11.9104 18.7635C11.6032 17.8771 11.8323 17.0064 12.4282 16.3153C12.1209 18.2477 12.6182 19.0317 13.6666 20.5675L14.9385 18.32C14.9114 18.0064 14.9001 17.6915 14.8791 17.3266C14.624 17.6819 14.4376 17.9789 14.3113 18.1909C14.239 18.3124 14.1559 18.4568 13.9901 18.7456C13.8782 18.9404 13.7848 19.1043 13.7172 19.2233C13.717 19.2236 13.7169 19.2239 13.7167 19.2241C13.191 18.6001 12.9208 17.8528 12.8156 17.5049C12.7745 17.3691 12.7479 17.2291 12.7444 17.0871C12.7444 17.0863 12.7444 17.0855 12.7444 17.0848C12.7396 16.8772 12.7662 16.6936 12.8003 16.5461C12.8263 16.4337 12.8568 16.3421 12.8809 16.2767C12.9606 16.9597 13.2447 17.5766 13.6251 18.1478C14.0088 16.9118 15.1083 16.3279 16.257 16.3474C17.0044 16.3965 17.5525 16.607 17.4056 17.5216C17.4488 17.4063 17.4738 17.3389 17.5012 17.2654C17.8352 16.3714 17.4851 15.3996 16.5537 15.206C16.6432 12.1032 12.7495 12.6039 12.468 8.88418C11.5223 12.6388 15.0218 12.5212 15.8994 14.6158ZM18.7387 9.41348C18.7383 9.55694 18.7378 9.7003 18.7408 9.84366C18.7428 9.94113 18.7469 10.0386 18.7505 10.1361L19.2238 10.4568L19.202 9.24175L18.7421 8.92368C18.7408 9.08695 18.7393 9.25021 18.7387 9.41348ZM2.0778 9.59118L2.08605 10.0843C2.45693 9.87007 2.82792 9.65616 3.1988 9.44205L3.19106 8.94018L2.0778 9.59118ZM14.2425 9.20009C14.2444 9.20122 14.2464 9.20246 14.2484 9.20359C14.475 9.33736 14.701 9.47216 14.9274 9.60614C15.0588 9.6838 15.1903 9.76126 15.3217 9.83871L15.8897 9.57953L14.7899 8.95029L14.2425 9.20009ZM9.71809 10.0161L9.65497 10.639C9.69695 10.6155 9.73893 10.5921 9.7809 10.5689C10.0526 10.419 10.3247 10.2701 10.597 10.1215C10.6382 10.099 10.6827 10.0827 10.7235 10.0597C10.8916 9.96495 11.059 9.86903 11.2263 9.77271C11.3795 9.68463 11.5324 9.59551 11.7009 9.49795C11.5981 9.42111 11.5101 9.3517 11.4182 9.28775C11.3527 9.24196 11.2867 9.19689 11.2207 9.15172L9.71809 10.0161ZM19.3056 10.5121L21.3539 11.8995L21.3326 10.7153L19.2839 9.29838L19.3056 10.5121ZM23.0676 10.5782L23.5109 10.8365L23.5178 9.57716L23.0817 9.32798C23.077 9.74475 23.0725 10.1614 23.0676 10.5782ZM5.3458 10.1042L5.09456 12.5824L6.14687 11.9772L6.37253 9.51362L5.3458 10.1042ZM23.5915 10.8833L25.519 12.0063L25.526 10.7247L23.5985 9.62326L23.5915 10.8833ZM15.4065 9.88884C15.4478 9.91338 15.4893 9.93773 15.5306 9.96227C15.7971 10.1211 16.063 10.2809 16.3287 10.4409C16.3689 10.4651 16.4054 10.4953 16.4458 10.519C16.6126 10.6162 16.7799 10.7123 16.9474 10.8082C17.101 10.896 17.2548 10.9829 17.4242 11.079C17.4386 10.9516 17.4541 10.8405 17.463 10.729C17.4695 10.6494 17.475 10.5696 17.4806 10.4899L15.976 9.62893L15.4065 9.88884ZM0.878833 10.2922L0.882236 10.7791C1.25693 10.563 1.63153 10.3468 2.00602 10.1305L1.99777 9.6379L0.878833 10.2922ZM8.53346 10.6975L8.47282 11.2961C8.47478 11.295 8.47674 11.294 8.4787 11.2929C8.70869 11.1648 8.9391 11.0377 9.1692 10.9098C9.30245 10.8356 9.4356 10.7612 9.56896 10.6868L9.63187 10.0657L8.53346 10.6975ZM4.19624 10.7656L3.96727 13.231L5.00844 12.6321L5.25968 10.1538L4.19624 10.7656ZM18.7563 10.3623C18.7578 10.5497 18.7476 10.7371 18.7504 10.9245C18.7527 11.0853 18.7578 11.2462 18.7626 11.4071L19.247 11.7488L19.2257 10.5555L18.7539 10.2359C18.7551 10.2781 18.756 10.3203 18.7563 10.3623ZM0.449473 10.5431C0.453186 10.6594 0.456796 10.7755 0.457415 10.8917C0.457724 10.9614 0.486603 10.9803 0.542503 10.958C0.613977 10.9292 0.683388 10.8939 0.750221 10.8553C0.767445 10.8454 0.784566 10.8355 0.80179 10.8255L0.798386 10.3392L0.449473 10.5431ZM13.4748 12.9561C11.7227 11.9124 11.2933 10.354 11.2933 10.354C10.76 13.0104 13.4748 12.9561 13.4748 12.9561ZM19.3289 11.8065L21.3783 13.2514L21.3557 11.9983L19.3074 10.6109L19.3289 11.8065ZM23.0507 11.968L23.5032 12.2259L23.5104 10.9296L23.0666 10.671C23.0616 11.1034 23.0562 11.5357 23.0507 11.968ZM7.3447 11.3813L7.27973 11.9692C7.36451 11.9193 7.44939 11.8695 7.53499 11.8207C7.81769 11.6596 8.10245 11.5021 8.3867 11.3441L8.44724 10.7471L7.3447 11.3813ZM2.92703 11.4956L2.67631 13.9679L2.68115 13.9707L3.88146 13.2803L4.11043 10.8149L2.92703 11.4956ZM23.5837 12.2717L25.5114 13.37L25.5184 12.0996L23.591 10.9765L23.5837 12.2717ZM6.2235 12.0264L6.17142 12.5937C6.20782 12.5723 6.24433 12.5512 6.28105 12.5305C6.44442 12.4388 6.61336 12.357 6.77611 12.2643C6.91586 12.1846 7.05427 12.1025 7.19278 12.0206L7.25797 11.4313L6.2235 12.0264ZM18.7723 11.8032C18.7769 12.1285 18.7772 12.454 18.7783 12.7793L19.2718 13.1206L19.2489 11.8489L18.7655 11.508C18.7683 11.6064 18.7708 11.7048 18.7723 11.8032ZM1.7062 12.198L2.61205 13.802L2.84081 11.5452L1.7062 12.198ZM19.3537 13.1772L21.4024 14.594L21.38 13.3516L19.3307 11.9065L19.3537 13.1772ZM23.0338 13.3572L23.4955 13.6319L23.5028 12.3185L23.0496 12.0603C23.0442 12.4926 23.0389 12.925 23.0338 13.3572ZM5.08456 12.6815L5.02814 13.2378C5.17171 13.16 5.31538 13.0826 5.45864 13.0042C5.58436 12.9354 5.71029 12.8664 5.83436 12.7946C5.91863 12.7458 6.00196 12.6951 6.08561 12.6449L6.13779 12.0756L5.08456 12.6815ZM0.655644 12.8022V12.8056L2.58266 13.9141L1.63617 12.2382L0.655644 12.8022ZM23.576 13.6797L25.5033 14.8263L25.5109 13.4626L23.5832 12.3643L23.576 13.6797ZM3.95809 13.3295L3.90766 13.8721C4.14941 13.7348 4.38818 13.5919 4.63075 13.4559C4.7341 13.3982 4.83816 13.3417 4.94212 13.285L4.99844 12.731L3.95809 13.3295ZM18.7787 12.8846C18.7798 13.1478 18.7799 13.411 18.7808 13.6741C18.7813 13.8267 18.7822 13.9793 18.7829 14.1318L19.2963 14.487L19.2736 13.2201L18.7787 12.8778C18.7787 12.88 18.7787 12.8823 18.7787 12.8846ZM0.655644 14.0503L2.58936 15.1627V14.0295L2.58895 14.0293L2.58936 14.0254V14.0235L2.58957 14.0234L2.59081 14.0119L0.655644 12.8988V14.0503ZM12.5467 14.609C10.5121 14.4676 9.42622 13.2704 9.42622 13.2704C10.1482 15.8817 12.5467 14.609 12.5467 14.609ZM19.3782 14.5436L20.8731 15.5774C21.0116 15.5078 21.15 15.438 21.2889 15.3691C21.3309 15.3484 21.3731 15.3279 21.4153 15.3073L21.4042 14.6935L19.3554 13.2766L19.3782 14.5436ZM2.76222 14.0173L3.10773 14.2161L3.21674 14.2746C3.25511 14.2279 3.30699 14.1913 3.37186 14.1581C3.52286 14.0806 3.67374 14.0024 3.82206 13.9199L3.87239 13.3788L2.76222 14.0173ZM23.0204 14.6146L23.4885 14.8873L23.4949 13.7255L23.0328 13.4507C23.0283 13.8387 23.0241 14.2266 23.0204 14.6146ZM6.93051 13.661C6.85934 13.6972 6.78849 13.7342 6.71773 13.7713L6.77394 15.5038L7.29396 15.8525C7.29303 15.8044 7.292 15.7563 7.29138 15.7082C7.28674 15.3981 7.28334 15.0879 7.28024 14.7776C7.27973 14.7309 7.28633 14.6839 7.28519 14.6372C7.28055 14.4442 7.27467 14.2513 7.26838 14.0584C7.26261 13.8817 7.2559 13.7049 7.24889 13.5103C7.13276 13.565 7.03014 13.61 6.93051 13.661ZM23.569 14.9343L25.4965 16.0572L25.5028 14.9201L23.5754 13.7735L23.569 14.9343ZM6.22989 14.0236C6.00052 14.138 5.76578 14.2416 5.5364 14.3559C5.44616 14.4009 5.35674 14.4474 5.26711 14.4936L6.69123 15.4484L6.63822 13.813C6.50249 13.8842 6.36686 13.9552 6.22989 14.0236ZM2.67012 15.2092L3.14001 15.4794C3.14125 15.1566 3.14238 14.8337 3.14269 14.511C3.1428 14.4449 3.15342 14.3918 3.17281 14.3467L3.0673 14.2861L2.67012 14.0729V15.2092ZM0.655644 15.2807L2.58936 16.4166V15.2558L0.655644 14.1436V15.2807ZM18.7838 14.3745C18.7838 14.6847 18.7829 14.9948 18.7815 15.3051C18.7813 15.352 18.774 15.3988 18.7745 15.4457C18.7763 15.6386 18.7794 15.8316 18.7829 16.0246C18.7861 16.2013 18.7903 16.3781 18.7945 16.5728C18.9113 16.5199 19.0147 16.4763 19.115 16.4269C19.1867 16.3916 19.2581 16.3556 19.3294 16.3195L19.2982 14.5864L18.7832 14.2303C18.7834 14.2784 18.7838 14.3265 18.7838 14.3745ZM4.77205 14.7499C4.73038 14.7713 4.68861 14.7925 4.64674 14.8135L4.66654 15.4272L6.73558 16.8143L6.69453 15.5479L5.18491 14.5358C5.04732 14.6072 4.90995 14.6791 4.77205 14.7499ZM19.4095 16.2791C19.5461 16.2099 19.6828 16.1406 19.8208 16.0744C20.0518 15.9633 20.288 15.8631 20.5189 15.7521C20.6098 15.7085 20.6999 15.6632 20.7902 15.6182L19.38 14.643L19.4095 16.2791ZM23.0116 15.6761C23.0111 15.7421 23.0001 15.7951 22.9806 15.8402L23.0857 15.9013L23.4816 16.1168L23.488 14.9805L23.0197 14.7077C23.0167 15.0304 23.0137 15.3531 23.0116 15.6761ZM4.23914 15.0238C4.19758 15.0469 4.14704 15.1008 4.1457 15.1419C4.13889 15.3591 4.14343 15.5768 4.14993 15.7943C4.15509 15.9635 4.17313 16.1323 4.17788 16.3015C4.18324 16.492 4.17664 16.6828 4.18149 16.8733C4.18891 17.166 4.20387 17.4587 4.2113 17.7515C4.21604 17.9383 4.21006 18.1254 4.21387 18.3122C4.22089 18.6625 4.23192 19.0128 4.24017 19.3631C4.24131 19.4132 4.2343 19.4637 4.23564 19.5139C4.24028 19.7068 4.24801 19.8996 4.25245 20.0926C4.25647 20.2634 4.25441 20.4344 4.2608 20.6051C4.26709 20.7711 4.28421 20.9368 4.29009 21.1028C4.2968 21.2933 4.2936 21.484 4.29937 21.6744C4.30835 21.9676 4.32382 22.2604 4.33186 22.5536C4.33681 22.7405 4.33001 22.9277 4.33454 23.1147C4.34321 23.465 4.35827 23.8151 4.36672 24.1656C4.37332 24.436 4.37724 24.7067 4.376 24.9773C4.37518 25.1528 4.43129 25.2676 4.60198 25.3582C7.38534 26.8334 10.1647 28.3163 12.9448 29.7976C12.9776 29.815 13.0091 29.843 13.0434 29.8471C13.0998 29.8539 13.1678 29.8636 13.2133 29.8392C13.3266 29.7786 13.4316 29.7028 13.5388 29.6312L4.75101 24.9488L4.74895 24.8839L4.42592 14.9252C4.36322 14.9574 4.30072 14.9899 4.23914 15.0238ZM23.5623 16.1606L23.5626 16.1607L23.5623 16.1646V16.1665L23.5621 16.1666L23.5607 16.1782L25.4896 17.3019L25.496 16.1505L23.5686 15.0274L23.5623 16.1606ZM2.67012 16.4641L3.13382 16.7364C3.13619 16.3484 3.13815 15.9604 3.1397 15.5724L2.67012 15.3023V16.4641ZM0.655644 16.7381L2.58936 17.8258V16.5103L0.655644 15.3745V16.7381ZM4.71007 16.7687L6.77993 18.1839L6.73877 16.9137L4.66984 15.5266L4.71007 16.7687ZM6.81819 16.8698L7.31799 17.2049C7.31799 17.2025 7.31789 17.2003 7.31789 17.1981C7.31294 16.9349 7.30912 16.6718 7.30438 16.4085C7.3017 16.256 7.2986 16.1035 7.29571 15.9509L6.77714 15.6033L6.81819 16.8698ZM22.7805 16.0277C22.629 16.1042 22.4778 16.1817 22.329 16.2633L22.2758 16.8042L23.3893 16.1718L23.045 15.9711L22.9362 15.9119C22.8977 15.9585 22.8456 15.9948 22.7805 16.0277ZM22.2661 16.9026L22.0234 19.3668L23.2105 18.6925L23.4749 16.2217L23.4701 16.2189L22.2661 16.9026ZM24.5055 17.9571L25.4891 17.3986V17.3952L23.5683 16.276L24.5055 17.9571ZM21.5177 16.7227C21.414 16.7799 21.3097 16.8359 21.2054 16.8921L21.1461 17.4457L22.1896 16.8531L22.2432 16.3107C22.0005 16.4466 21.7611 16.5882 21.5177 16.7227ZM23.297 18.6434L24.4353 17.997L23.5383 16.3881L23.297 18.6434ZM2.67012 17.8712L3.12464 18.1268C3.12774 17.6945 3.13063 17.2622 3.13331 16.8299L2.67012 16.5578V17.8712ZM0.655644 18.1013L2.58936 19.2137V17.9184L0.655644 16.8308V18.1013ZM4.754 18.1213L6.822 19.4791L6.78323 18.2839L4.71337 16.8687L4.754 18.1213ZM20.6874 17.1699C20.5612 17.2381 20.4351 17.3062 20.3105 17.3775C20.2259 17.4259 20.1423 17.476 20.0583 17.5258L20.003 18.0948L21.0597 17.4948L21.1192 16.9387C20.9752 17.0157 20.831 17.0924 20.6874 17.1699ZM21.1355 17.5446L20.8705 20.0213L21.9374 19.4156L22.18 16.9515L21.1355 17.5446ZM6.86264 18.2405L7.35089 18.5742C7.34677 18.4759 7.34274 18.3775 7.33986 18.2791C7.33057 17.954 7.32562 17.6286 7.31975 17.3033L6.82149 16.9692L6.86264 18.2405ZM19.8623 17.6391C19.6985 17.7299 19.5291 17.8107 19.3658 17.9026C19.2257 17.9815 19.0868 18.0629 18.9478 18.144L18.8794 18.7328L19.9172 18.1435L19.9723 17.5765C19.9358 17.5976 19.8993 17.6187 19.8623 17.6391ZM19.9934 18.1931L19.7541 20.6554L20.7841 20.0705L21.049 17.5937L19.9934 18.1931ZM2.67012 19.2601L3.11536 19.5163C3.11804 19.0838 3.12103 18.6515 3.12413 18.2191L2.67012 17.9639V19.2601ZM0.655644 19.4762L2.58936 20.5669V19.3068L0.655644 18.1945V19.4762ZM18.6045 18.342C18.321 18.5015 18.0353 18.6573 17.75 18.8139L17.6863 19.4105L18.7923 18.7823L18.8606 18.1948C18.7755 18.2444 18.6903 18.2937 18.6045 18.342ZM4.79557 19.404L6.8646 20.791L6.8253 19.5777L4.7572 18.2201L4.79557 19.404ZM18.8678 18.8324L18.5784 21.3231L19.6682 20.7042L19.9076 18.2419L18.8678 18.8324ZM6.90462 19.5333L7.3809 19.846C7.37915 19.8039 7.37771 19.7617 7.37678 19.7196C7.37255 19.5323 7.37987 19.3447 7.37451 19.1575C7.36987 18.9966 7.36255 18.8359 7.35533 18.6751L6.86594 18.3404L6.90462 19.5333ZM17.6578 18.8645C17.4272 18.9913 17.1961 19.1171 16.9653 19.2438C16.8316 19.3172 16.698 19.391 16.5643 19.4645L16.4978 20.0853L17.5997 19.4596L17.6638 18.8612C17.6617 18.8624 17.6598 18.8635 17.6578 18.8645ZM17.6756 19.5094L17.4107 21.9862L18.4913 21.3725L18.7808 18.8819L17.6756 19.5094ZM8.71663 19.5098C8.71065 19.5895 8.70508 19.6692 8.69993 19.7489L10.2077 20.6042L10.7763 20.3423C10.7348 20.318 10.6934 20.2937 10.6519 20.2693C10.3848 20.1115 10.1183 19.9526 9.85197 19.7936C9.81174 19.7697 9.77513 19.7396 9.73449 19.716C9.56751 19.6194 9.39981 19.5239 9.23201 19.4287C9.07823 19.3415 8.92394 19.2551 8.75417 19.1596C8.74025 19.2871 8.72509 19.3983 8.71663 19.5098ZM25.6362 19.2181C25.5648 19.2471 25.4955 19.2827 25.4289 19.3214C25.4116 19.3314 25.3945 19.3415 25.3774 19.3514L25.3826 19.8377L25.7306 19.6324C25.7266 19.5164 25.7225 19.4002 25.7216 19.284C25.7212 19.2327 25.7054 19.209 25.6748 19.209C25.6638 19.209 25.6509 19.2121 25.6362 19.2181ZM2.67012 20.6125L3.10783 20.8594C3.11 20.4426 3.11227 20.0259 3.11485 19.6091L2.67012 19.3533V20.6125ZM24.1757 20.0509L24.1858 20.5435L25.3023 19.8851L25.2972 19.3982C24.9232 19.6156 24.5494 19.8333 24.1757 20.0509ZM4.83868 20.7296L6.90678 22.091L6.8679 20.8905L4.79887 19.5033L4.83868 20.7296ZM16.3516 19.5812C16.0792 19.7298 15.8062 19.877 15.5332 20.0241C15.4918 20.0464 15.4472 20.0624 15.4063 20.0853C15.2377 20.179 15.0697 20.2741 14.9019 20.3693C14.7481 20.4567 14.5948 20.5449 14.4258 20.6417C14.5282 20.7191 14.6159 20.7889 14.7072 20.8534C14.7725 20.8994 14.8382 20.9449 14.904 20.9904L16.4114 20.1345L16.478 19.5119C16.4358 19.535 16.3937 19.5582 16.3516 19.5812ZM16.4873 20.1842L16.294 21.9914C16.4213 22.0799 16.5488 22.1681 16.6757 22.2571C16.714 22.2841 16.7521 22.3113 16.7902 22.3385L17.3241 22.0354L17.5891 19.5585L16.4873 20.1842ZM0.655644 20.8618L2.58936 21.9494V20.6598L0.655644 19.569V20.8618ZM6.94721 20.8464L7.41174 21.1579C7.41051 20.9946 7.40978 20.8314 7.40803 20.6682C7.40648 20.5247 7.40473 20.3814 7.39978 20.238C7.39627 20.1406 7.3907 20.0432 7.38575 19.9458L6.90781 19.632L6.94721 20.8464ZM25.3836 19.931L25.4077 22.1616L25.7797 21.9423C25.7751 21.8317 25.7707 21.7212 25.7681 21.6107C25.7599 21.2632 25.7545 20.9156 25.7485 20.568C25.7447 20.3376 25.7432 20.107 25.7383 19.8765C25.7372 19.8258 25.7356 19.7751 25.7339 19.7243L25.3836 19.931ZM8.66084 20.2968C8.63887 20.5522 8.60494 20.8065 8.58297 21.0619C8.5742 21.1622 8.56729 21.2628 8.56017 21.3635L10.1173 20.6459L8.69394 19.8385C8.68404 19.9914 8.67404 20.1442 8.66084 20.2968ZM24.1877 20.6362L24.2331 22.8542L25.3275 22.209L25.3033 19.9783L24.1877 20.6362ZM22.9855 20.7439L22.9952 21.2456L24.106 20.5905L24.0959 20.0974C23.7258 20.313 23.3556 20.5284 22.9855 20.7439ZM14.9779 21.0414C15.104 21.1283 15.2302 21.2152 15.3543 21.3048C15.5624 21.4545 15.7634 21.6141 15.9713 21.7639C16.053 21.8229 16.1358 21.8805 16.2184 21.9381L16.4009 20.2334L14.9779 21.0414ZM10.2941 20.6534L11.3963 21.2785L11.9428 21.0267C11.9408 21.0256 11.9389 21.0244 11.937 21.0233C11.7098 20.8903 11.4833 20.7564 11.2563 20.6232C11.1248 20.546 10.9929 20.4692 10.8613 20.3921L10.2941 20.6534ZM22.997 21.3384L23.0396 23.558L24.1533 22.9013L24.1079 20.6833L22.997 21.3384ZM8.55316 21.4555C8.54243 21.6102 8.53212 21.7649 8.52067 21.9195C8.51727 21.9662 8.51345 22.0129 8.50953 22.0596L9.04368 22.3625L11.306 21.3201L10.2039 20.6949L8.55316 21.4555ZM2.67012 21.9948L3.09999 22.2366C3.10226 21.8083 3.10494 21.3802 3.10721 20.9518L2.67012 20.7053V21.9948ZM21.825 21.4195L21.8306 21.9324L22.9153 21.2928L22.9056 20.7904C22.5455 21.0001 22.1853 21.2099 21.825 21.4195ZM4.88612 22.193L6.9502 23.5768L6.95485 23.5738L6.90998 22.1898L4.84177 20.8284L4.88612 22.193ZM6.9894 22.1453L7.44454 22.445C7.43711 22.1671 7.42319 21.8891 7.41742 21.6112C7.41494 21.4928 7.41401 21.3744 7.41298 21.2559L6.95051 20.9459L6.9894 22.1453ZM0.655644 22.225L2.58936 23.3372V22.042L0.655644 20.9544V22.225ZM11.4829 21.3276L12.5892 21.9552L13.1286 21.7125C13.0425 21.6649 12.9565 21.617 12.871 21.5681C12.5887 21.4065 12.3085 21.2411 12.0277 21.0765L11.4829 21.3276ZM9.13021 22.4116L10.2111 23.0248L12.4978 21.9963L11.3925 21.3692L9.13021 22.4116ZM21.8315 22.0256L21.8557 24.2561L22.9598 23.6051L22.9171 21.3855L21.8315 22.0256ZM20.6231 22.1175L20.6338 22.6381L21.7504 21.9797L21.7448 21.4661C21.3709 21.6834 20.9971 21.9005 20.6231 22.1175ZM12.6763 22.0046L13.7143 22.5934L14.2295 22.35C14.1927 22.3295 14.1559 22.3088 14.1195 22.2877C13.9574 22.1935 13.8012 22.0895 13.6385 21.9965C13.499 21.9166 13.3579 21.8391 13.217 21.7614L12.6763 22.0046ZM10.2981 23.0742L11.3883 23.6925L13.625 22.6355L12.585 22.0457L10.2981 23.0742ZM20.6357 22.7307L20.6811 24.9489L21.7754 24.3035L21.7514 22.0729L20.6357 22.7307ZM2.67012 23.3837L3.09226 23.6265C3.09484 23.1939 3.09711 22.7615 3.09948 22.3289L2.67012 22.0875V23.3837ZM19.4216 22.8152L19.4226 23.3524L20.554 22.6853L20.5433 22.1638C20.1693 22.3808 19.7955 22.598 19.4216 22.8152ZM17.213 27.2544L17.1565 27.2225L8.48973 22.3063C8.48447 22.3765 8.47973 22.4467 8.47663 22.5171C8.47457 22.5646 8.49427 22.6358 8.52872 22.6583C8.71045 22.7774 8.89857 22.8871 9.08751 22.9948C9.23459 23.0786 9.38816 23.1512 9.53492 23.2354C9.70025 23.3302 9.8597 23.4353 10.0247 23.5305C10.2784 23.6767 10.536 23.8166 10.7898 23.9628C10.9515 24.0563 11.1082 24.1588 11.2696 24.2529C11.5722 24.4295 11.8768 24.6029 12.18 24.7784C12.2235 24.8035 12.2629 24.8359 12.3063 24.8609C12.4735 24.9575 12.642 25.0513 12.809 25.1482C12.9568 25.2338 13.1017 25.3246 13.2506 25.4082C13.3955 25.4895 13.5459 25.5612 13.6906 25.6428C13.8567 25.7364 14.0178 25.8385 14.1834 25.9328C14.4382 26.0781 14.6961 26.2175 14.9504 26.3635C15.1126 26.4567 15.2687 26.5601 15.4307 26.6536C15.7341 26.8289 16.0408 26.9987 16.3442 27.1741C16.5785 27.3095 16.8116 27.4472 17.0418 27.5893C17.1911 27.6816 17.3183 27.6936 17.4845 27.5951C20.1946 25.9889 22.9089 24.3904 25.6223 22.7902C25.6543 22.7713 25.6946 22.759 25.716 22.7318C25.7512 22.6872 25.7949 22.6342 25.7979 22.5827C25.8051 22.4545 25.7953 22.3254 25.7901 22.1966L17.213 27.2544ZM7.03416 23.5243L7.37204 23.3127L7.47486 23.2441C7.45176 23.1883 7.44382 23.1252 7.44506 23.0524C7.44774 22.8827 7.44949 22.7128 7.4465 22.543L6.99249 22.2442L7.03416 23.5243ZM4.93181 23.6007L6.77343 23.5554L4.88932 22.2924L4.93181 23.6007ZM0.655644 22.75C0.753212 22.8021 0.850574 22.8544 0.94711 22.9083C1.25064 23.0779 1.55294 23.2496 1.85523 23.4211C2.05583 23.5348 2.25499 23.6507 2.45611 23.7636C2.50035 23.7884 2.54481 23.8129 2.58936 23.8372V23.4305L0.655644 22.3182V22.75ZM13.8003 22.6421L14.8572 23.2416L15.3652 23.0076C15.2251 22.9235 15.0855 22.8391 14.9452 22.7555C14.822 22.6821 14.6987 22.6087 14.5738 22.5383C14.4889 22.4904 14.4029 22.4444 14.3172 22.3979L13.8003 22.6421ZM11.4742 23.7413L12.5044 24.3257L14.7668 23.2833L13.7109 22.6843L11.4742 23.7413ZM19.4228 23.4461L19.4265 25.6887L20.6012 24.9959L20.5558 22.7779L19.4228 23.4461ZM18.3353 23.4484L18.3411 23.99L19.3418 23.4L19.341 22.8622C19.0056 23.0573 18.6703 23.2526 18.3353 23.4484ZM14.9437 23.2907L15.9876 23.8828L16.4806 23.6506C16.2396 23.512 15.9952 23.3791 15.7549 23.2391C15.6526 23.1795 15.551 23.1185 15.4494 23.0577L14.9437 23.2907ZM7.41484 23.3813L7.03983 23.6315L8.04263 24.1659L8.50201 23.8784C8.21776 23.7255 7.93351 23.5727 7.64875 23.4205C7.59038 23.3895 7.54861 23.355 7.51787 23.3168L7.41484 23.3813ZM12.591 24.3748L13.6581 24.98L15.8981 23.925L14.8533 23.3322L12.591 24.3748ZM2.67012 23.881C2.77233 23.9365 2.87443 23.992 2.97499 24.0502C3.03522 24.085 3.06627 24.0697 3.07514 24.0101C3.08638 23.9338 3.09102 23.8561 3.09143 23.7789C3.09154 23.7591 3.09164 23.7392 3.09174 23.7194L2.67012 23.4769V23.881ZM18.3421 24.0833L18.3662 26.3138L19.3458 25.7363L19.342 23.4937L18.3421 24.0833ZM17.4194 23.985C17.3626 24.0185 17.3114 24.0363 17.2627 24.0425L17.264 24.1641L17.2821 24.6145L18.2608 24.0375L18.255 23.4955C17.9763 23.6584 17.6977 23.8213 17.4194 23.985ZM4.93449 23.6814L4.97111 24.8119L4.9742 24.8135L6.85852 23.6341L4.93449 23.6814ZM5.0564 24.8573L6.07261 25.3988L7.96363 24.2153L6.96361 23.6825L6.9632 23.6827L6.96 23.6805L6.95825 23.6797V23.6794L6.94876 23.673L5.0564 24.8573ZM16.0735 23.9317L17.1875 24.5635L17.1833 24.165L17.1782 24.0414C17.1186 24.032 17.0607 24.0059 16.9991 23.9669C16.8557 23.8761 16.7116 23.786 16.5653 23.7L16.0735 23.9317ZM8.12494 24.2097L9.15022 24.756L9.60856 24.475C9.26728 24.2904 8.9258 24.1062 8.5841 23.9224L8.12494 24.2097ZM13.7442 25.0288L14.9317 25.7024L17.1886 24.6625L17.1885 24.6569L15.9842 23.9738L13.7442 25.0288ZM17.2858 24.7062V24.7066L17.2823 24.7083L17.2807 24.7092L17.2805 24.7091L17.2699 24.714L17.294 26.9462L18.286 26.3612L18.2619 24.1306L17.2858 24.7062ZM6.15502 25.4426L7.15864 25.9774L9.07029 24.805L8.04593 24.2591L6.15502 25.4426ZM9.23294 24.8001L10.392 25.4178L10.8314 25.1367C10.4512 24.9308 10.071 24.7249 9.69076 24.5193L9.23294 24.8001ZM16.227 26.4372L17.2108 26.9953L17.2138 26.9935L17.1898 24.7707L16.227 26.4372ZM15.0181 25.7515L16.1568 26.3974L17.0783 24.8024L15.0181 25.7515ZM7.24126 26.0214L8.44476 26.6628L10.3139 25.4677L9.15301 24.8491L7.24126 26.0214ZM10.4738 25.4613L11.6178 26.0708L12.0532 25.7984C11.6729 25.5926 11.2927 25.3867 10.9125 25.1808L10.4738 25.4613ZM8.52655 26.7064L9.64786 27.3037L11.5388 26.1203L10.3956 25.5112L8.52655 26.7064ZM11.7 26.1147L12.8114 26.7068L13.2349 26.4367C12.8682 26.2386 12.5015 26.0408 12.1348 25.8425L11.7 26.1147ZM9.73006 27.3477L10.8612 27.9503L12.7331 26.7567L11.621 26.1642L9.73006 27.3477ZM12.8933 26.7504L14.0313 27.3569L14.4468 27.0912C14.07 26.8877 13.6932 26.6842 13.3163 26.4807L12.8933 26.7504ZM10.943 27.9938L12.0841 28.6018L13.9532 27.4068L12.815 26.8003L10.943 27.9938ZM14.113 27.4005L15.2571 28.0099L15.6697 27.7516C15.2893 27.546 14.9087 27.3405 14.528 27.1351L14.113 27.4005ZM12.1657 28.6455L13.2871 29.2429L15.178 28.0594L14.035 27.4504L12.1657 28.6455ZM15.3393 28.0539L15.6959 28.2438C15.793 28.1798 15.8898 28.1157 15.9885 28.0543C16.0476 28.0176 16.0486 27.9829 16.0002 27.9472C15.9382 27.9014 15.8718 27.8608 15.8039 27.8241C15.7865 27.8147 15.7689 27.8052 15.7515 27.7958L15.3393 28.0539ZM13.3694 29.2868L13.7504 29.4898C13.8422 29.4283 13.9342 29.3668 14.0273 29.3071C14.3196 29.1188 14.6133 28.933 14.9068 28.7467C15.1015 28.6232 15.2975 28.5019 15.4915 28.3775C15.5343 28.3502 15.5768 28.3224 15.6192 28.2946L15.2603 28.1033L13.3694 29.2868Z" fill="url(#paint1_linear_71_4256)"/>
<defs>
<linearGradient id="paint0_linear_71_4256" x1="33.5716" y1="0.819992" x2="69.3627" y2="27.0755" gradientUnits="userSpaceOnUse">
<stop stop-color="#4E3A22"/>
<stop offset="0.830399" stop-color="#E5B431"/>
<stop offset="1" stop-color="#E5B431"/>
</linearGradient>
<linearGradient id="paint1_linear_71_4256" x1="20.9238" y1="3.68748" x2="5.86018" y2="25.6253" gradientUnits="userSpaceOnUse">
<stop stop-color="#38281A"/>
<stop offset="0.519057" stop-color="#D2A433"/>
<stop offset="1" stop-color="#D2A433"/>
</linearGradient>
</defs>
</svg>
