<svg width="20" height="20" viewBox="0 0 20 20" fill="none" xmlns="http://www.w3.org/2000/svg">
<mask id="mask0_195_7" style="mask-type:alpha" maskUnits="userSpaceOnUse" x="0" y="0" width="20" height="20">
<rect width="20" height="20" fill="#D9D9D9"/>
</mask>
<g mask="url(#mask0_195_7)">
<path d="M5.83337 17.5C5.37504 17.5 4.98268 17.3368 4.65629 17.0104C4.3299 16.684 4.16671 16.2917 4.16671 15.8333V5C3.9306 5 3.73268 4.92014 3.57296 4.76042C3.41324 4.60069 3.33337 4.40278 3.33337 4.16667C3.33337 3.93056 3.41324 3.73264 3.57296 3.57292C3.73268 3.41319 3.9306 3.33333 4.16671 3.33333H7.50004C7.50004 3.09722 7.5799 2.89931 7.73962 2.73958C7.89935 2.57986 8.09726 2.5 8.33337 2.5H11.6667C11.9028 2.5 12.1007 2.57986 12.2605 2.73958C12.4202 2.89931 12.5 3.09722 12.5 3.33333H15.8334C16.0695 3.33333 16.2674 3.41319 16.4271 3.57292C16.5868 3.73264 16.6667 3.93056 16.6667 4.16667C16.6667 4.40278 16.5868 4.60069 16.4271 4.76042C16.2674 4.92014 16.0695 5 15.8334 5V15.8333C15.8334 16.2917 15.6702 16.684 15.3438 17.0104C15.0174 17.3368 14.625 17.5 14.1667 17.5H5.83337ZM14.1667 5H5.83337V15.8333H14.1667V5ZM8.33337 14.1667C8.56949 14.1667 8.7674 14.0868 8.92712 13.9271C9.08685 13.7674 9.16671 13.5694 9.16671 13.3333V7.5C9.16671 7.26389 9.08685 7.06597 8.92712 6.90625C8.7674 6.74653 8.56949 6.66667 8.33337 6.66667C8.09726 6.66667 7.89935 6.74653 7.73962 6.90625C7.5799 7.06597 7.50004 7.26389 7.50004 7.5V13.3333C7.50004 13.5694 7.5799 13.7674 7.73962 13.9271C7.89935 14.0868 8.09726 14.1667 8.33337 14.1667ZM11.6667 14.1667C11.9028 14.1667 12.1007 14.0868 12.2605 13.9271C12.4202 13.7674 12.5 13.5694 12.5 13.3333V7.5C12.5 7.26389 12.4202 7.06597 12.2605 6.90625C12.1007 6.74653 11.9028 6.66667 11.6667 6.66667C11.4306 6.66667 11.2327 6.74653 11.073 6.90625C10.9132 7.06597 10.8334 7.26389 10.8334 7.5V13.3333C10.8334 13.5694 10.9132 13.7674 11.073 13.9271C11.2327 14.0868 11.4306 14.1667 11.6667 14.1667Z" fill="white"/>
</g>
</svg>
