<svg width="164" height="60" viewBox="0 0 164 60" fill="none" xmlns="http://www.w3.org/2000/svg">
<g opacity="0.3">
<mask id="mask0_24_582" style="mask-type:alpha" maskUnits="userSpaceOnUse" x="0" y="0" width="60" height="60">
<rect width="60" height="60" fill="#D9D9D9"/>
</mask>
<g mask="url(#mask0_24_582)">
<path d="M19.9999 52.5C18.6249 52.5 17.4479 52.0104 16.4687 51.0312C15.4895 50.0521 14.9999 48.875 14.9999 47.5V42.5H9.99994C8.62494 42.5 7.44786 42.0104 6.46869 41.0312C5.48952 40.0521 4.99994 38.875 4.99994 37.5V27.5C4.99994 25.375 5.72911 23.5938 7.18744 22.1562C8.64577 20.7188 10.4166 20 12.4999 20H47.4999C49.6249 20 51.4062 20.7188 52.8437 22.1562C54.2812 23.5938 54.9999 25.375 54.9999 27.5V37.5C54.9999 38.875 54.5104 40.0521 53.5312 41.0312C52.552 42.0104 51.3749 42.5 49.9999 42.5H44.9999V47.5C44.9999 48.875 44.5104 50.0521 43.5312 51.0312C42.552 52.0104 41.3749 52.5 39.9999 52.5H19.9999ZM9.99994 37.5H14.9999C14.9999 36.125 15.4895 34.9479 16.4687 33.9688C17.4479 32.9896 18.6249 32.5 19.9999 32.5H39.9999C41.3749 32.5 42.552 32.9896 43.5312 33.9688C44.5104 34.9479 44.9999 36.125 44.9999 37.5H49.9999V27.5C49.9999 26.7917 49.7603 26.1979 49.2812 25.7188C48.802 25.2396 48.2083 25 47.4999 25H12.4999C11.7916 25 11.1979 25.2396 10.7187 25.7188C10.2395 26.1979 9.99994 26.7917 9.99994 27.5V37.5ZM39.9999 20V12.5H19.9999V20H14.9999V12.5C14.9999 11.125 15.4895 9.94792 16.4687 8.96875C17.4479 7.98958 18.6249 7.5 19.9999 7.5H39.9999C41.3749 7.5 42.552 7.98958 43.5312 8.96875C44.5104 9.94792 44.9999 11.125 44.9999 12.5V20H39.9999ZM44.9999 31.25C45.7083 31.25 46.302 31.0104 46.7812 30.5313C47.2603 30.0521 47.4999 29.4583 47.4999 28.75C47.4999 28.0417 47.2603 27.4479 46.7812 26.9688C46.302 26.4896 45.7083 26.25 44.9999 26.25C44.2916 26.25 43.6979 26.4896 43.2187 26.9688C42.7395 27.4479 42.4999 28.0417 42.4999 28.75C42.4999 29.4583 42.7395 30.0521 43.2187 30.5313C43.6979 31.0104 44.2916 31.25 44.9999 31.25ZM39.9999 47.5V37.5H19.9999V47.5H39.9999Z" fill="#151515"/>
</g>
<mask id="mask1_24_582" style="mask-type:alpha" maskUnits="userSpaceOnUse" x="70" y="18" width="24" height="24">
<rect x="70" y="18" width="24" height="24" fill="#D9D9D9"/>
</mask>
<g mask="url(#mask1_24_582)">
<path d="M83.6 30L79.7 26.1C79.5167 25.9167 79.425 25.6833 79.425 25.4C79.425 25.1167 79.5167 24.8833 79.7 24.7C79.8833 24.5167 80.1167 24.425 80.4 24.425C80.6833 24.425 80.9167 24.5167 81.1 24.7L85.7 29.3C85.8 29.4 85.8708 29.5083 85.9125 29.625C85.9542 29.7417 85.975 29.8667 85.975 30C85.975 30.1333 85.9542 30.2583 85.9125 30.375C85.8708 30.4917 85.8 30.6 85.7 30.7L81.1 35.3C80.9167 35.4833 80.6833 35.575 80.4 35.575C80.1167 35.575 79.8833 35.4833 79.7 35.3C79.5167 35.1167 79.425 34.8833 79.425 34.6C79.425 34.3167 79.5167 34.0833 79.7 33.9L83.6 30Z" fill="#151515"/>
</g>
<mask id="mask2_24_582" style="mask-type:alpha" maskUnits="userSpaceOnUse" x="104" y="0" width="60" height="60">
<rect x="104" width="60" height="60" fill="#D9D9D9"/>
</mask>
<g mask="url(#mask2_24_582)">
<path d="M116.5 55C115.125 55 113.948 54.5104 112.969 53.5312C111.99 52.5521 111.5 51.375 111.5 50V20C111.5 18.625 111.99 17.4479 112.969 16.4688C113.948 15.4896 115.125 15 116.5 15H121.5C121.5 11.5417 122.719 8.59375 125.156 6.15625C127.594 3.71875 130.542 2.5 134 2.5C137.458 2.5 140.406 3.71875 142.844 6.15625C145.281 8.59375 146.5 11.5417 146.5 15H151.5C152.875 15 154.052 15.4896 155.031 16.4688C156.01 17.4479 156.5 18.625 156.5 20V50C156.5 51.375 156.01 52.5521 155.031 53.5312C154.052 54.5104 152.875 55 151.5 55H116.5ZM116.5 50H151.5V20H116.5V50ZM126.5 15H141.5C141.5 12.9167 140.771 11.1458 139.312 9.6875C137.854 8.22917 136.083 7.5 134 7.5C131.917 7.5 130.146 8.22917 128.688 9.6875C127.229 11.1458 126.5 12.9167 126.5 15ZM133.938 35C137.021 35 139.812 33.9792 142.312 31.9375C144.812 29.8958 146.042 27.6042 146 25.0625C146 24.3542 145.771 23.75 145.312 23.25C144.854 22.75 144.271 22.5 143.562 22.5C142.979 22.5 142.458 22.6875 142 23.0625C141.542 23.4375 141.208 24 141 24.75C140.542 26.3333 139.646 27.6042 138.312 28.5625C136.979 29.5208 135.521 30 133.938 30C132.354 30 130.885 29.5208 129.531 28.5625C128.177 27.6042 127.292 26.3333 126.875 24.75C126.667 23.9583 126.354 23.3854 125.938 23.0313C125.521 22.6771 125.021 22.5 124.438 22.5C123.729 22.5 123.135 22.75 122.656 23.25C122.177 23.75 121.938 24.3542 121.938 25.0625C121.938 27.6042 123.167 29.8958 125.625 31.9375C128.083 33.9792 130.854 35 133.938 35Z" fill="#151515"/>
</g>
</g>
</svg>
