<svg width="23" height="23" viewBox="0 0 23 23" fill="none" xmlns="http://www.w3.org/2000/svg">
<mask id="mask0_45_204" style="mask-type:alpha" maskUnits="userSpaceOnUse" x="0" y="0" width="23" height="23">
<rect width="23" height="23" fill="#D9D9D9"/>
</mask>
<g mask="url(#mask0_45_204)">
<path d="M4.79167 13.4167V11.5H6.70833V13.4167H4.79167ZM2.875 11.5V9.58333H4.79167V11.5H2.875ZM11.5 4.79167V2.875H13.4167V4.79167H11.5ZM4.3125 7.1875H7.1875V4.3125H4.3125V7.1875ZM4.3125 18.6875H7.1875V15.8125H4.3125V18.6875ZM15.8125 7.1875H18.6875V4.3125H15.8125V7.1875ZM8.625 13.4167V11.5H6.70833V9.58333H10.5417V13.4167H8.625ZM9.58333 8.625V4.79167H11.5V6.70833H13.4167V8.625H9.58333ZM5.03125 6.46875V5.03125H6.46875V6.46875H5.03125ZM5.03125 17.9688V16.5312H6.46875V17.9688H5.03125ZM16.5312 6.46875V5.03125H17.9688V6.46875H16.5312ZM15.3333 17.25H13.4167C13.1451 17.25 12.9175 17.1582 12.7339 16.9745C12.5502 16.7908 12.4583 16.5632 12.4583 16.2917C12.4583 16.0201 12.5502 15.7925 12.7339 15.6089C12.9175 15.4252 13.1451 15.3333 13.4167 15.3333H15.3333V13.4167C15.3333 13.1451 15.4252 12.9175 15.6089 12.7339C15.7925 12.5502 16.0201 12.4583 16.2917 12.4583C16.5632 12.4583 16.7908 12.5502 16.9745 12.7339C17.1582 12.9175 17.25 13.1451 17.25 13.4167V15.3333H19.1667C19.4382 15.3333 19.6658 15.4252 19.8495 15.6089C20.0332 15.7925 20.125 16.0201 20.125 16.2917C20.125 16.5632 20.0332 16.7908 19.8495 16.9745C19.6658 17.1582 19.4382 17.25 19.1667 17.25H17.25V19.1667C17.25 19.4382 17.1582 19.6658 16.9745 19.8495C16.7908 20.0332 16.5632 20.125 16.2917 20.125C16.0201 20.125 15.7925 20.0332 15.6089 19.8495C15.4252 19.6658 15.3333 19.4382 15.3333 19.1667V17.25ZM2.875 7.66667V3.83333C2.875 3.56181 2.96684 3.3342 3.15052 3.15052C3.3342 2.96684 3.56181 2.875 3.83333 2.875H7.66667C7.93819 2.875 8.1658 2.96684 8.34948 3.15052C8.53316 3.3342 8.625 3.56181 8.625 3.83333V7.66667C8.625 7.93819 8.53316 8.1658 8.34948 8.34948C8.1658 8.53316 7.93819 8.625 7.66667 8.625H3.83333C3.56181 8.625 3.3342 8.53316 3.15052 8.34948C2.96684 8.1658 2.875 7.93819 2.875 7.66667ZM2.875 19.1667V15.3333C2.875 15.0618 2.96684 14.8342 3.15052 14.6505C3.3342 14.4668 3.56181 14.375 3.83333 14.375H7.66667C7.93819 14.375 8.1658 14.4668 8.34948 14.6505C8.53316 14.8342 8.625 15.0618 8.625 15.3333V19.1667C8.625 19.4382 8.53316 19.6658 8.34948 19.8495C8.1658 20.0332 7.93819 20.125 7.66667 20.125H3.83333C3.56181 20.125 3.3342 20.0332 3.15052 19.8495C2.96684 19.6658 2.875 19.4382 2.875 19.1667ZM14.375 7.66667V3.83333C14.375 3.56181 14.4668 3.3342 14.6505 3.15052C14.8342 2.96684 15.0618 2.875 15.3333 2.875H19.1667C19.4382 2.875 19.6658 2.96684 19.8495 3.15052C20.0332 3.3342 20.125 3.56181 20.125 3.83333V7.66667C20.125 7.93819 20.0332 8.1658 19.8495 8.34948C19.6658 8.53316 19.4382 8.625 19.1667 8.625H15.3333C15.0618 8.625 14.8342 8.53316 14.6505 8.34948C14.4668 8.1658 14.375 7.93819 14.375 7.66667Z" fill="white"/>
</g>
</svg>
