<svg width="164" height="60" viewBox="0 0 164 60" fill="none" xmlns="http://www.w3.org/2000/svg">
<g opacity="0.3">
<mask id="mask0_24_584" style="mask-type:alpha" maskUnits="userSpaceOnUse" x="70" y="18" width="24" height="24">
<rect x="69.9999" y="18" width="24" height="24" fill="#D9D9D9"/>
</mask>
<g mask="url(#mask0_24_584)">
<path d="M83.5999 30L79.6999 26.1C79.5166 25.9167 79.4249 25.6834 79.4249 25.4C79.4249 25.1167 79.5166 24.8834 79.6999 24.7C79.8833 24.5167 80.1166 24.425 80.3999 24.425C80.6833 24.425 80.9166 24.5167 81.0999 24.7L85.6999 29.3C85.7999 29.4 85.8708 29.5084 85.9124 29.625C85.9541 29.7417 85.9749 29.8667 85.9749 30C85.9749 30.1334 85.9541 30.2584 85.9124 30.375C85.8708 30.4917 85.7999 30.6 85.6999 30.7L81.0999 35.3C80.9166 35.4834 80.6833 35.575 80.3999 35.575C80.1166 35.575 79.8833 35.4834 79.6999 35.3C79.5166 35.1167 79.4249 34.8834 79.4249 34.6C79.4249 34.3167 79.5166 34.0834 79.6999 33.9L83.5999 30Z" fill="#151515"/>
</g>
<mask id="mask1_24_584" style="mask-type:alpha" maskUnits="userSpaceOnUse" x="0" y="0" width="60" height="60">
<rect width="60" height="60" fill="#D9D9D9"/>
</mask>
<g mask="url(#mask1_24_584)">
<path d="M12.5 55C11.125 55 9.94792 54.5104 8.96875 53.5312C7.98958 52.5521 7.5 51.375 7.5 50V20C7.5 18.625 7.98958 17.4479 8.96875 16.4688C9.94792 15.4896 11.125 15 12.5 15H17.5C17.5 11.5417 18.7188 8.59375 21.1562 6.15625C23.5938 3.71875 26.5417 2.5 30 2.5C33.4583 2.5 36.4062 3.71875 38.8438 6.15625C41.2812 8.59375 42.5 11.5417 42.5 15H47.5C48.875 15 50.0521 15.4896 51.0312 16.4688C52.0104 17.4479 52.5 18.625 52.5 20V50C52.5 51.375 52.0104 52.5521 51.0312 53.5312C50.0521 54.5104 48.875 55 47.5 55H12.5ZM12.5 50H47.5V20H12.5V50ZM22.5 15H37.5C37.5 12.9167 36.7708 11.1458 35.3125 9.6875C33.8542 8.22917 32.0833 7.5 30 7.5C27.9167 7.5 26.1458 8.22917 24.6875 9.6875C23.2292 11.1458 22.5 12.9167 22.5 15ZM29.9375 35C33.0208 35 35.8125 33.9792 38.3125 31.9375C40.8125 29.8958 42.0417 27.6042 42 25.0625C42 24.3542 41.7708 23.75 41.3125 23.25C40.8542 22.75 40.2708 22.5 39.5625 22.5C38.9792 22.5 38.4583 22.6875 38 23.0625C37.5417 23.4375 37.2083 24 37 24.75C36.5417 26.3333 35.6458 27.6042 34.3125 28.5625C32.9792 29.5208 31.5208 30 29.9375 30C28.3542 30 26.8854 29.5208 25.5312 28.5625C24.1771 27.6042 23.2917 26.3333 22.875 24.75C22.6667 23.9583 22.3542 23.3854 21.9375 23.0313C21.5208 22.6771 21.0208 22.5 20.4375 22.5C19.7292 22.5 19.1354 22.75 18.6562 23.25C18.1771 23.75 17.9375 24.3542 17.9375 25.0625C17.9375 27.6042 19.1667 29.8958 21.625 31.9375C24.0833 33.9792 26.8542 35 29.9375 35Z" fill="#151515"/>
</g>
<mask id="mask2_24_584" style="mask-type:alpha" maskUnits="userSpaceOnUse" x="104" y="0" width="60" height="60">
<rect x="104" width="60" height="60" fill="#D9D9D9"/>
</mask>
<g mask="url(#mask2_24_584)">
<path d="M134 55C130.583 55 127.354 54.3438 124.312 53.0312C121.271 51.7188 118.615 49.9271 116.344 47.6562C114.073 45.3854 112.281 42.7292 110.969 39.6875C109.656 36.6458 109 33.4167 109 30C109 26.5417 109.656 23.2917 110.969 20.25C112.281 17.2083 114.073 14.5625 116.344 12.3125C118.615 10.0625 121.271 8.28125 124.312 6.96875C127.354 5.65625 130.583 5 134 5C137.458 5 140.708 5.65625 143.75 6.96875C146.792 8.28125 149.438 10.0625 151.688 12.3125C153.938 14.5625 155.719 17.2083 157.031 20.25C158.344 23.2917 159 26.5417 159 30C159 33.4167 158.344 36.6458 157.031 39.6875C155.719 42.7292 153.938 45.3854 151.688 47.6562C149.438 49.9271 146.792 51.7188 143.75 53.0312C140.708 54.3438 137.458 55 134 55ZM134 10C129.375 10 125.292 11.3854 121.75 14.1562C118.208 16.9271 115.854 20.4583 114.688 24.75C115.521 24.5417 116.385 24.1354 117.281 23.5312C118.177 22.9271 119.208 21.4583 120.375 19.125C121 17.8333 121.917 16.8229 123.125 16.0938C124.333 15.3646 125.667 15 127.125 15H140.875C142.333 15 143.667 15.3646 144.875 16.0938C146.083 16.8229 147 17.8333 147.625 19.125C148.792 21.5 149.844 22.9792 150.781 23.5625C151.719 24.1458 152.562 24.5417 153.312 24.75C152.146 20.4583 149.802 16.9271 146.281 14.1562C142.76 11.3854 138.667 10 134 10ZM134 50C139.583 50 144.323 48.0417 148.219 44.125C152.115 40.2083 154.042 35.4583 154 29.875C151.042 29.5833 148.771 28.6563 147.188 27.0938C145.604 25.5313 144.25 23.625 143.125 21.375C142.917 20.9167 142.615 20.5729 142.219 20.3438C141.823 20.1146 141.396 20 140.938 20H127.125C126.625 20 126.177 20.1146 125.781 20.3438C125.385 20.5729 125.083 20.9167 124.875 21.375C123.75 23.6667 122.375 25.5938 120.75 27.1562C119.125 28.7188 116.875 29.6458 114 29.9375C114 35.5208 115.948 40.2604 119.844 44.1562C123.74 48.0521 128.458 50 134 50ZM126.5 35.625C125.625 35.625 124.885 35.3229 124.281 34.7188C123.677 34.1146 123.375 33.375 123.375 32.5C123.375 31.625 123.677 30.8854 124.281 30.2812C124.885 29.6771 125.625 29.375 126.5 29.375C127.375 29.375 128.115 29.6771 128.719 30.2812C129.323 30.8854 129.625 31.625 129.625 32.5C129.625 33.375 129.323 34.1146 128.719 34.7188C128.115 35.3229 127.375 35.625 126.5 35.625ZM141.5 35.625C140.625 35.625 139.885 35.3229 139.281 34.7188C138.677 34.1146 138.375 33.375 138.375 32.5C138.375 31.625 138.677 30.8854 139.281 30.2812C139.885 29.6771 140.625 29.375 141.5 29.375C142.375 29.375 143.115 29.6771 143.719 30.2812C144.323 30.8854 144.625 31.625 144.625 32.5C144.625 33.375 144.323 34.1146 143.719 34.7188C143.115 35.3229 142.375 35.625 141.5 35.625Z" fill="#151515"/>
</g>
</g>
</svg>
