<svg width="19" height="19" viewBox="0 0 19 19" fill="none" xmlns="http://www.w3.org/2000/svg">
<path d="M4.59875 3.62476H14.3078V15.378H4.59875V3.62476Z" fill="white"/>
<path d="M9.50988 0C4.2591 0 0 4.24329 0 9.45852C0 14.6895 4.2591 18.921 9.50988 18.921C14.7409 18.921 19 14.6895 19 9.45852C19 4.24329 14.7409 0 9.50988 0ZM10.7386 15.0807V5.3456H9.86546C8.26138 5.3456 7.41984 6.15554 7.41984 7.35267C7.41984 8.71574 8.00062 9.34394 9.20171 10.1539L10.1894 10.8216L7.33687 15.0807H5.21522L7.77542 11.272C6.30173 10.221 5.47598 9.19775 5.47598 7.46725C5.47598 5.29424 6.98129 3.82054 9.84966 3.82054H12.6983V15.0807H10.7386Z" fill="#FC3F1D"/>
</svg>
